<?xml version="1.0" standalone="no"?>
<!DOCTYPE svg PUBLIC "-//W3C//DTD SVG 1.1//EN" "http://www.w3.org/Graphics/SVG/1.1/DTD/svg11.dtd" >
<!--
2013-9-30: Created.
-->
<svg>
<metadata>
Created by iconfont
</metadata>
<defs>

<font id="iconfont" horiz-adv-x="1024" >
  <font-face
    font-family="iconfont"
    font-weight="500"
    font-stretch="normal"
    units-per-em="1024"
    ascent="896"
    descent="-128"
  />
    <missing-glyph />
    
    <glyph glyph-name="cell_wifi_px_rounded" unicode="&#60752;" d="M308.906667-21.333333h494.506666c46.933333 0 85.333333 38.4 85.333334 85.333333V559.36c0 37.973333-46.08 57.173333-72.96 30.293333L278.613333 51.626667c-26.88-26.88-7.68-72.96 30.293334-72.96z m-29.866667 72.96c-26.88-26.88-8.106667-72.96 29.866667-72.96h409.173333V491.52L279.04 51.626667z m58.026667 393.386666l82.346666-82.346666 82.346667 82.346666a116.906667 116.906667 0 0 1-164.693333 0zM307.2 520.533333a194.261333 194.261333 0 0 0 224.853333 0c15.36-11.093333 36.266667-9.386667 49.493334 4.266667 16.64 16.64 14.933333 45.226667-4.266667 58.88a273.152 273.152 0 0 1-315.733333 0c-19.2-13.653333-21.333333-42.24-4.266667-58.88a38.4 38.4 0 0 1 49.92-4.266667z m334.506667 111.36c14.506667-11.946667 35.413333-11.946667 48.64 1.28l5.12 5.12c14.933333 14.933333 13.226667 39.253333-3.413334 52.906667-156.586667 130.133333-384.853333 130.986667-541.866666 2.56-18.346667-14.933333-20.053333-42.24-3.413334-58.453333 13.653333-14.08 35.84-15.786667 50.773334-3.413334 128.426667 105.813333 315.733333 105.813333 444.16 0z"  horiz-adv-x="1024" />

    
    <glyph glyph-name="desktop_access_disabled_px_rounded" unicode="&#60753;" d="M34.56 838.4a42.496 42.496 0 0 1 0-60.16l29.44-29.013333v-508.16c0-46.933333 38.4-85.333333 85.333333-85.333334h298.666667v-85.333333h-42.666667c-23.466667 0-42.666667-19.2-42.666666-42.666667s19.2-42.666667 42.666666-42.666666h256c23.466667 0 42.666667 19.2 42.666667 42.666666s-19.2 42.666667-42.666667 42.666667h-42.666666v85.333333h38.4l225.706666-225.706666a42.496 42.496 0 1 1 60.16 60.16L94.72 838.4c-8.106667 8.106667-18.773333 12.373333-29.866667 12.373333s-22.613333-4.693333-30.293333-12.373333z m114.346667-554.666667V663.893333l422.826666-422.826666H191.573333c-23.466667 0-42.666667 19.2-42.666666 42.666666z m66.56 554.666667l85.333333-85.333333H874.666667c23.466667 0 42.666667-19.2 42.666666-42.666667v-426.666667c0-23.466667-19.2-42.666667-42.666666-42.666666h-61.866667l85.333333-85.333334h18.773334c46.933333 0 85.333333 38.4 85.333333 85.333334v512c0 46.933333-38.4 85.333333-85.333333 85.333333H215.466667z"  horiz-adv-x="1024" />

    
    <glyph glyph-name="dialer_sip_px_rounded" unicode="&#60754;" d="M703.573333 554.24c11.946667 0 21.333333 9.386667 21.333334 21.333333v170.666667c0 11.946667-9.386667 21.333333-21.333334 21.333333s-21.333333-9.386667-21.333333-21.333333v-170.666667c0-11.946667 9.386667-21.333333 21.333333-21.333333z m-170.666666 42.666667c-11.946667 0-21.333333-9.386667-21.333334-21.333334s9.386667-21.333333 21.333334-21.333333h83.2c12.8 0 23.466667 10.666667 23.466666 23.466667v81.066666c0 12.8-10.666667 23.466667-23.466666 23.466667h-61.866667v42.666667h64c11.946667 0 21.333333 9.386667 21.333333 21.333333s-9.386667 21.333333-21.333333 21.333333h-83.2c-12.8 0-23.466667-10.666667-23.466667-23.466666v-80.64c0-13.226667 10.666667-23.893333 23.466667-23.893334h61.866667v-42.666666h-64z m339.2 170.666666h-80.64c-13.226667 0-23.893333-10.666667-23.893334-23.466666v-168.533334c0-11.946667 9.386667-21.333333 21.333334-21.333333s21.333333 9.386667 21.333333 21.333333v64h61.866667c12.8 0 23.466667 10.666667 23.466666 23.466667v81.066667c0 12.8-10.666667 23.466667-23.466666 23.466666z m-19.2-85.333333h-42.666667v42.666667h42.666667v-42.666667z m-33.706667-438.186667l-108.373333 12.373334a84.906667 84.906667 0 0 1-69.973334-24.32l-78.506666-78.506667a641.92 641.92 0 0 0-281.173334 281.173333l78.933334 78.933334c18.346667 18.346667 27.306667 44.373333 24.32 69.973333L372.053333 691.2a85.333333 85.333333 0 0 1-84.48 75.946667H213.76c-48.213333 0-88.32-40.106667-85.333333-88.32 22.613333-364.373333 314.026667-655.36 677.973333-677.973334 48.213333-2.986667 88.32 37.12 88.32 85.333334v73.813333c0.426667 42.666667-32.426667 79.36-75.52 84.053333z"  horiz-adv-x="1024" />

    
    <glyph glyph-name="dialpad_px_rounded" unicode="&#60755;" d="M512 85.333333c-46.933333 0-85.333333-38.4-85.333333-85.333333s38.4-85.333333 85.333333-85.333333 85.333333 38.4 85.333333 85.333333-38.4 85.333333-85.333333 85.333333zM256 853.333333c-46.933333 0-85.333333-38.4-85.333333-85.333333s38.4-85.333333 85.333333-85.333333 85.333333 38.4 85.333333 85.333333-38.4 85.333333-85.333333 85.333333z m0-256c-46.933333 0-85.333333-38.4-85.333333-85.333333s38.4-85.333333 85.333333-85.333333 85.333333 38.4 85.333333 85.333333-38.4 85.333333-85.333333 85.333333z m0-256c-46.933333 0-85.333333-38.4-85.333333-85.333333s38.4-85.333333 85.333333-85.333333 85.333333 38.4 85.333333 85.333333-38.4 85.333333-85.333333 85.333333z m512 341.333334c46.933333 0 85.333333 38.4 85.333333 85.333333s-38.4 85.333333-85.333333 85.333333-85.333333-38.4-85.333333-85.333333 38.4-85.333333 85.333333-85.333333z m-256-341.333334c-46.933333 0-85.333333-38.4-85.333333-85.333333s38.4-85.333333 85.333333-85.333333 85.333333 38.4 85.333333 85.333333-38.4 85.333333-85.333333 85.333333z m256 0c-46.933333 0-85.333333-38.4-85.333333-85.333333s38.4-85.333333 85.333333-85.333333 85.333333 38.4 85.333333 85.333333-38.4 85.333333-85.333333 85.333333z m0 256c-46.933333 0-85.333333-38.4-85.333333-85.333333s38.4-85.333333 85.333333-85.333333 85.333333 38.4 85.333333 85.333333-38.4 85.333333-85.333333 85.333333z m-256 0c-46.933333 0-85.333333-38.4-85.333333-85.333333s38.4-85.333333 85.333333-85.333333 85.333333 38.4 85.333333 85.333333-38.4 85.333333-85.333333 85.333333z m0 256c-46.933333 0-85.333333-38.4-85.333333-85.333333s38.4-85.333333 85.333333-85.333333 85.333333 38.4 85.333333 85.333333-38.4 85.333333-85.333333 85.333333z"  horiz-adv-x="1024" />

    
    <glyph glyph-name="contact_phone_px_rounded" unicode="&#60756;" d="M938.666667 768H85.333333C38.4 768 0 729.6 0 682.666667v-597.333334c0-46.933333 38.4-85.333333 85.333333-85.333333h853.333334c46.933333 0 84.906667 38.4 84.906666 85.333333L1024 682.666667c0 46.933333-38.4 85.333333-85.333333 85.333333zM341.333333 640c70.826667 0 128-57.173333 128-128s-57.173333-128-128-128-128 57.173333-128 128 57.173333 128 128 128z m256-512H85.333333v42.666667c0 85.333333 170.666667 132.266667 256 132.266666s256-46.933333 256-132.266666v-42.666667z m164.266667 170.666667h59.306667c6.826667 0 12.8-2.986667 17.066666-8.533334l46.933334-61.866666c6.4-8.533333 5.546667-20.48-2.133334-27.733334l-58.026666-58.026666c-7.68-7.68-20.48-8.533333-28.586667-1.706667a323.285333 323.285333 0 0 0-101.546667 158.293333 309.248 309.248 0 0 0 0 170.24 320.554667 320.554667 0 0 0 101.546667 158.293334c8.533333 7.253333 20.906667 5.973333 28.586667-1.706667l58.026666-58.026667c7.68-7.68 8.533333-19.626667 2.133334-27.733333l-46.933334-61.866667a20.48 20.48 0 0 0-17.066666-8.533333h-59.306667c-9.386667-26.88-14.933333-55.466667-14.933333-85.333333s5.546667-58.88 14.933333-85.76z"  horiz-adv-x="1024" />

    
    <glyph glyph-name="email_px_rounded" unicode="&#60757;" d="M853.333333 725.333333H170.666667c-46.933333 0-84.906667-38.4-84.906667-85.333333L85.333333 128c0-46.933333 38.4-85.333333 85.333334-85.333333h682.666666c46.933333 0 85.333333 38.4 85.333334 85.333333V640c0 46.933333-38.4 85.333333-85.333334 85.333333z m-17.066666-181.333333l-301.653334-188.586667c-13.653333-8.533333-31.573333-8.533333-45.226666 0L187.733333 544a36.266667 36.266667 0 1 0 38.4 61.44L512 426.666667l285.866667 178.773333a36.266667 36.266667 0 1 0 38.4-61.44z"  horiz-adv-x="1024" />

    
    <glyph glyph-name="import_contacts_px_rounded" unicode="&#60758;" d="M746.666667 738.986667c-83.2 0-172.8-17.066667-234.666667-64-61.866667 46.933333-151.466667 64-234.666667 64-61.866667 0-127.573333-9.386667-182.613333-33.706667C64 691.2 42.666667 660.906667 42.666667 626.346667V145.066667c0-55.466667 52.053333-96.426667 105.813333-82.773334 41.813333 10.666667 86.186667 15.36 128.853333 15.36 66.56 0 137.386667-11.093333 194.56-39.253333 25.6-12.8 54.613333-12.8 79.786667 0 57.173333 28.586667 128 39.253333 194.56 39.253333 42.666667 0 87.04-4.693333 128.853333-15.36 53.76-14.08 106.24 26.88 106.24 82.773334V626.346667c0 34.56-20.906667 64.853333-52.053333 78.933333-54.613333 24.32-120.746667 33.706667-182.613333 33.706667zM896 195.84c0-26.88-24.746667-46.506667-51.2-41.813333-32 5.973333-65.28 8.533333-98.133333 8.533333-72.533333 0-177.066667-27.733333-234.666667-64V589.653333c57.6 36.266667 162.133333 64 234.666667 64 39.253333 0 78.08-3.84 115.2-11.946666 19.626667-4.266667 34.133333-21.76 34.133333-41.813334v-404.053333z"  horiz-adv-x="1024" />

    
    <glyph glyph-name="forum_px_rounded" unicode="&#60759;" d="M853.333333 640h-42.666666v-341.333333c0-23.466667-19.2-42.666667-42.666667-42.666667H256v-42.666667c0-46.933333 38.4-85.333333 85.333333-85.333333h426.666667l170.666667-170.666667V554.666667c0 46.933333-38.4 85.333333-85.333334 85.333333z m-128-213.333333V725.333333c0 46.933333-38.4 85.333333-85.333333 85.333334H170.666667c-46.933333 0-85.333333-38.4-85.333334-85.333334v-554.666666l170.666667 170.666666h384c46.933333 0 85.333333 38.4 85.333333 85.333334z"  horiz-adv-x="1024" />

    
    <glyph glyph-name="cancel_presentation_px_rounded" unicode="&#60760;" d="M896 768H128c-46.933333 0-85.333333-38.4-85.333333-85.333333v-597.333334c0-46.933333 38.4-85.333333 85.333333-85.333333h768c46.933333 0 85.333333 38.4 85.333333 85.333333V682.666667c0 46.933333-38.4 85.333333-85.333333 85.333333z m0-640c0-23.466667-19.2-42.666667-42.666667-42.666667H170.666667c-23.466667 0-42.666667 19.2-42.666667 42.666667V640c0 23.466667 19.2 42.666667 42.666667 42.666667h682.666666c23.466667 0 42.666667-19.2 42.666667-42.666667v-512z m-243.626667 396.8c-8.106667 8.106667-18.773333 12.373333-29.866666 12.373333s-22.186667-4.693333-29.866667-12.373333L512 444.16 431.36 524.8c-8.106667 8.106667-18.773333 12.373333-30.293333 12.373333s-21.76-4.266667-29.866667-12.373333a42.496 42.496 0 0 1 0-60.16L451.84 384 371.2 303.36a42.496 42.496 0 1 1 60.16-60.16L512 323.84l80.64-80.64a42.496 42.496 0 1 1 60.16 60.16L572.16 384l80.64 80.64c16.213333 16.213333 16.213333 43.52-0.426667 60.16z"  horiz-adv-x="1024" />

    
    <glyph glyph-name="import_export_px_rounded" unicode="&#60761;" d="M369.066667 752.64L250.026667 634.026667c-13.653333-13.226667-4.266667-36.266667 14.933333-36.266667H341.333333V341.333333c0-23.466667 19.2-42.666667 42.666667-42.666666s42.666667 19.2 42.666667 42.666666V597.76h76.373333c19.2 0 28.586667 23.04 14.933333 36.266667L398.933333 752.64c-8.106667 8.533333-21.76 8.533333-29.866666 0zM682.666667 170.24V426.666667c0 23.466667-19.2 42.666667-42.666667 42.666666s-42.666667-19.2-42.666667-42.666666v-256.426667h-76.373333c-19.2 0-28.586667-23.04-14.933333-36.266667l119.04-118.613333c8.533333-8.106667 21.76-8.106667 30.293333 0l119.04 118.613333c13.653333 13.226667 3.84 36.266667-14.933333 36.266667H682.666667z"  horiz-adv-x="1024" />

    
    <glyph glyph-name="invert_colors_off_px_rounded" unicode="&#60762;" d="M509.44 695.466667v-172.8l315.733333-315.733334c49.066667 122.88 25.173333 267.946667-74.666666 367.36l-210.773334 211.2a41.984 41.984 0 0 1-29.866666 12.373334c-11.093333 0-22.186667-4.693333-29.866667-12.373334L362.666667 669.44l60.16-60.16 86.613333 86.186667z m-354.56 0.853333a42.496 42.496 0 0 1 0-60.16l88.746667-88.746667a341.461333 341.461333 0 0 1 24.32-455.68 341.802667 341.802667 0 0 1 241.493333-99.413333c75.946667 0 151.893333 25.173333 214.186667 75.52l85.333333-85.333333A42.496 42.496 0 1 1 869.12 42.666667L215.466667 696.32c-16.64 16.64-43.946667 16.64-60.586667 0z m354.56-619.093333c-68.266667 0-132.693333 26.453333-180.906667 75.093333a253.653333 253.653333 0 0 0-75.093333 180.906667c0 56.32 18.346667 109.226667 51.626667 153.173333l204.373333-204.373333v-204.8z"  horiz-adv-x="1024" />

    
    <glyph glyph-name="domain_disabled_px_rounded" unicode="&#60763;" d="M64 829.866667a42.496 42.496 0 0 1 0-60.16l55.04-55.466667v-593.066667c0-46.933333 38.4-85.333333 85.333333-85.333333h593.066667l97.706667-97.706667a42.496 42.496 0 1 1 60.16 60.16L124.16 829.866667c-8.106667 8.106667-18.773333 12.373333-29.866667 12.373333s-22.186667-4.266667-30.293333-12.373333z m225.706667-708.693334h-85.333334v85.333334h85.333334v-85.333334z m0 170.666667h-85.333334v85.333333h85.333334v-85.333333z m-85.333334 170.666667v85.333333h85.333334v-85.333333h-85.333334z m256-341.333334h-85.333333v85.333334h85.333333v-85.333334z m-85.333333 170.666667v85.333333h85.333333v-85.333333h-85.333333z m170.666667-170.666667v85.333334h81.066666l85.333334-85.333334h-166.4z m-170.666667 597.333334h85.333333v-85.333334h-19.2l104.533334-104.533333v19.2h298.666666c23.466667 0 42.666667-19.2 42.666667-42.666667v-317.866666l85.333333-85.333334V547.84c0 46.933333-38.4 85.333333-85.333333 85.333333h-341.333333v85.333334c0 46.933333-38.4 85.333333-85.333334 85.333333H270.506667l104.533333-104.533333v19.2z m341.333333-256h85.333334v-85.333334h-85.333334v85.333334z"  horiz-adv-x="1024" />

    
    <glyph glyph-name="duo_px_rounded" unicode="&#60764;" d="M853.333333 810.666667h-341.333333C272.213333 810.666667 85.333333 611.84 85.333333 372.053333 85.333333 149.333333 276.906667-42.666667 500.053333-42.666667 741.973333-42.666667 938.666667 144.213333 938.666667 384V725.333333c0 46.933333-38.4 85.333333-85.333334 85.333334z m-128-554.666667l-128 85.333333v-85.333333H298.666667V512h298.666666v-85.333333l128 85.333333v-256z"  horiz-adv-x="1024" />

    
    <glyph glyph-name="contacts_px_rounded" unicode="&#60765;" d="M810.666667 896H213.333333c-23.466667 0-42.666667-19.2-42.666666-42.666667s19.2-42.666667 42.666666-42.666666h597.333334c23.466667 0 42.666667 19.2 42.666666 42.666666s-19.2 42.666667-42.666666 42.666667zM213.333333-128h597.333334c23.466667 0 42.666667 19.2 42.666666 42.666667s-19.2 42.666667-42.666666 42.666666H213.333333c-23.466667 0-42.666667-19.2-42.666666-42.666666s19.2-42.666667 42.666666-42.666667zM853.333333 725.333333H170.666667c-46.933333 0-85.333333-38.4-85.333334-85.333333v-512c0-46.933333 38.4-85.333333 85.333334-85.333333h682.666666c46.933333 0 85.333333 38.4 85.333334 85.333333V640c0 46.933333-38.4 85.333333-85.333334 85.333333z m-341.333333-117.333333c52.906667 0 96-43.093333 96-96s-43.093333-96-96-96S416 459.093333 416 512 459.093333 608 512 608zM725.333333 170.666667H298.666667v64c0 71.253333 142.08 106.666667 213.333333 106.666666s213.333333-35.413333 213.333333-106.666666V170.666667z"  horiz-adv-x="1024" />

    
    <glyph glyph-name="list_alt_px_rounded" unicode="&#60766;" d="M512 512h170.666667c23.466667 0 42.666667 19.2 42.666666 42.666667s-19.2 42.666667-42.666666 42.666666h-170.666667c-23.466667 0-42.666667-19.2-42.666667-42.666666s19.2-42.666667 42.666667-42.666667z m0-170.666667h170.666667c23.466667 0 42.666667 19.2 42.666666 42.666667s-19.2 42.666667-42.666666 42.666667h-170.666667c-23.466667 0-42.666667-19.2-42.666667-42.666667s19.2-42.666667 42.666667-42.666667z m0-170.666666h170.666667c23.466667 0 42.666667 19.2 42.666666 42.666666s-19.2 42.666667-42.666666 42.666667h-170.666667c-23.466667 0-42.666667-19.2-42.666667-42.666667s19.2-42.666667 42.666667-42.666666zM298.666667 597.333333h85.333333v-85.333333H298.666667V597.333333z m0-170.666666h85.333333v-85.333334H298.666667v85.333334z m0-170.666667h85.333333v-85.333333H298.666667v85.333333zM853.333333 768H170.666667c-23.466667 0-42.666667-19.2-42.666667-42.666667v-682.666666c0-23.466667 19.2-42.666667 42.666667-42.666667h682.666666c23.466667 0 42.666667 19.2 42.666667 42.666667V725.333333c0 23.466667-19.2 42.666667-42.666667 42.666667z m-42.666666-682.666667H213.333333V682.666667h597.333334v-597.333334z"  horiz-adv-x="1024" />

    
    <glyph glyph-name="message_px_rounded" unicode="&#60767;" d="M853.333333 810.666667H170.666667c-46.933333 0-84.906667-38.4-84.906667-85.333334L85.333333-42.666667l170.666667 170.666667h597.333333c46.933333 0 85.333333 38.4 85.333334 85.333333V725.333333c0 46.933333-38.4 85.333333-85.333334 85.333334z m-128-512H298.666667c-23.466667 0-42.666667 19.2-42.666667 42.666666s19.2 42.666667 42.666667 42.666667h426.666666c23.466667 0 42.666667-19.2 42.666667-42.666667s-19.2-42.666667-42.666667-42.666666z m0 128H298.666667c-23.466667 0-42.666667 19.2-42.666667 42.666666s19.2 42.666667 42.666667 42.666667h426.666666c23.466667 0 42.666667-19.2 42.666667-42.666667s-19.2-42.666667-42.666667-42.666666z m0 128H298.666667c-23.466667 0-42.666667 19.2-42.666667 42.666666s19.2 42.666667 42.666667 42.666667h426.666666c23.466667 0 42.666667-19.2 42.666667-42.666667s-19.2-42.666667-42.666667-42.666666z"  horiz-adv-x="1024" />

    
    <glyph glyph-name="live_help_px_rounded" unicode="&#60768;" d="M810.666667 823.04H213.333333a85.333333 85.333333 0 0 1-85.333333-85.333333v-597.333334c0-46.933333 38.4-85.333333 85.333333-85.333333h170.666667L481.706667-42.666667c16.64-16.64 43.52-16.64 60.16 0l98.133333 97.706667h170.666667c46.933333 0 85.333333 38.4 85.333333 85.333333v597.333334c0 46.933333-38.4 85.333333-85.333333 85.333333z m-256-682.666667h-85.333334v85.333334h85.333334v-85.333334z m88.32 330.666667l-38.4-39.253333c-24.746667-25.173333-42.24-46.933333-47.786667-87.893334-2.56-18.346667-17.493333-32.426667-36.266667-32.426666h-13.226666a36.693333 36.693333 0 0 0-36.266667 41.813333c4.693333 38.826667 22.613333 73.386667 48.64 99.84l52.906667 53.76c15.36 15.36 24.746667 36.693333 24.746666 60.16 0 46.933333-38.4 85.333333-85.333333 85.333333-37.12 0-69.12-24.32-80.64-57.6-5.546667-15.786667-18.773333-27.306667-35.413333-27.306666h-12.8c-24.746667 0-41.813333 23.893333-34.986667 47.786666A170.752 170.752 0 0 0 682.666667 567.04c0-37.546667-15.36-71.68-39.68-96z"  horiz-adv-x="1024" />

    
    <glyph glyph-name="location_off_px_rounded" unicode="&#60769;" d="M155.306667 732.586667a42.496 42.496 0 0 1 0-60.16L260.693333 567.466667c-4.693333-22.186667-7.68-43.946667-7.68-66.986667 0-177.92 188.586667-423.253333 265.813334-516.693333 17.066667-20.48 48.213333-20.48 65.28 0 27.733333 33.28 69.12 85.76 111.36 147.626666l113.066666-113.066666a42.496 42.496 0 1 1 60.16 60.16L215.466667 732.586667a42.666667 42.666667 0 0 1-30.293334 12.8c-11.093333 0-21.76-4.693333-29.866666-12.8z m396.373333 66.56c-78.506667 0-149.333333-30.293333-202.666667-79.36l136.106667-136.106667c18.346667 14.506667 41.386667 23.466667 66.56 23.466667a106.666667 106.666667 0 0 0 106.666667-106.666667c0-25.173333-8.96-48.213333-23.893334-66.56l151.466667-151.466667c37.546667 74.666667 64.426667 151.04 64.426667 218.026667 0 165.546667-133.546667 298.666667-298.666667 298.666667z"  horiz-adv-x="1024" />

    
    <glyph glyph-name="mobile_screen_share_px_rounded" unicode="&#60770;" d="M725.333333 853.333333H298.666667c-46.933333 0-84.906667-38.4-84.906667-85.333333v-768c0-46.933333 37.973333-85.333333 84.906667-85.333333h426.666666c46.933333 0 85.333333 38.4 85.333334 85.333333V768c0 46.933333-38.826667 85.333333-85.333334 85.333333z m0-768H298.666667V682.666667h426.666666v-597.333334z m-179.2 246.613334v-74.666667l119.893334 111.786667c8.96 8.533333 8.96 22.613333 0 31.146666L546.133333 512v-72.533333c-132.693333-18.346667-185.6-109.226667-204.8-200.533334 46.933333 64 109.653333 93.013333 204.8 93.013334z"  horiz-adv-x="1024" />

    
    <glyph glyph-name="mail_outline_px_rounded" unicode="&#60771;" d="M853.333333 725.333333H170.666667c-46.933333 0-84.906667-38.4-84.906667-85.333333L85.333333 128c0-46.933333 38.4-85.333333 85.333334-85.333333h682.666666c46.933333 0 85.333333 38.4 85.333334 85.333333V640c0 46.933333-38.4 85.333333-85.333334 85.333333z m-42.666666-597.333333H213.333333c-23.466667 0-42.666667 19.2-42.666666 42.666667V554.666667l296.106666-185.173334c27.733333-17.493333 62.72-17.493333 90.453334 0L853.333333 554.666667v-384c0-23.466667-19.2-42.666667-42.666666-42.666667z m-298.666667 298.666667L170.666667 640h682.666666l-341.333333-213.333333z"  horiz-adv-x="1024" />

    
    <glyph glyph-name="no_sim_px_rounded" unicode="&#60772;" d="M139.52 732.16a42.496 42.496 0 0 1 0-60.16L226.133333 585.386667l-5.12-5.546667V110.933333c0-46.933333 38.4-85.333333 85.333334-85.333333h426.666666c14.933333 0 29.013333 4.266667 41.386667 11.093333l49.92-49.92a42.496 42.496 0 1 1 60.16 60.16L199.68 732.16c-8.106667 8.106667-18.773333 12.373333-29.866667 12.373333s-22.186667-4.266667-30.293333-12.373333z m678.826667-497.92V708.266667c0 46.933333-38.4 85.333333-85.333334 85.333333h-298.24L346.88 705.706667l471.466667-471.466667z"  horiz-adv-x="1024" />

    
    <glyph glyph-name="pause_presentation_px_rounded" unicode="&#60773;" d="M896 768H128c-46.933333 0-85.333333-38.4-85.333333-85.333333v-597.333334c0-46.933333 38.4-85.333333 85.333333-85.333333h768c46.933333 0 85.333333 38.4 85.333333 85.333333V682.666667c0 46.933333-38.4 85.333333-85.333333 85.333333z m0-640c0-23.466667-19.2-42.666667-42.666667-42.666667H170.666667c-23.466667 0-42.666667 19.2-42.666667 42.666667V640c0 23.466667 19.2 42.666667 42.666667 42.666667h682.666666c23.466667 0 42.666667-19.2 42.666667-42.666667v-512zM426.666667 554.666667c-23.466667 0-42.666667-19.2-42.666667-42.666667v-256c0-23.466667 19.2-42.666667 42.666667-42.666667s42.666667 19.2 42.666666 42.666667V512c0 23.466667-19.2 42.666667-42.666666 42.666667z m170.666666 0c-23.466667 0-42.666667-19.2-42.666666-42.666667v-256c0-23.466667 19.2-42.666667 42.666666-42.666667s42.666667 19.2 42.666667 42.666667V512c0 23.466667-19.2 42.666667-42.666667 42.666667z"  horiz-adv-x="1024" />

    
    <glyph glyph-name="phone_px_rounded" unicode="&#60774;" d="M820.053333 244.48l-108.373333 12.373333a84.906667 84.906667 0 0 1-69.973333-24.32l-78.506667-78.506666a641.92 641.92 0 0 0-281.173333 281.173333l78.933333 78.933333c18.346667 18.346667 27.306667 43.946667 24.32 69.973334l-12.373333 107.52a85.376 85.376 0 0 1-84.906667 75.52H214.186667c-48.213333 0-88.32-40.106667-85.333334-88.32 22.613333-364.373333 314.026667-655.36 677.973334-677.973334 48.213333-2.986667 88.32 37.12 88.32 85.333334v73.813333c0.426667 43.093333-32 79.36-75.093334 84.48z"  horiz-adv-x="1024" />

    
    <glyph glyph-name="phonelink_lock_px_rounded" unicode="&#60775;" d="M789.333333 853.333333h-426.666666c-46.933333 0-85.333333-38.4-85.333334-85.333333v-85.333333c0-23.466667 19.2-42.666667 42.666667-42.666667s42.666667 19.2 42.666667 42.666667V725.333333h426.666666v-682.666666h-426.666666v42.666666c0 23.466667-19.2 42.666667-42.666667 42.666667s-42.666667-19.2-42.666667-42.666667v-85.333333c0-46.933333 38.4-85.333333 85.333334-85.333333h426.666666c46.933333 0 85.333333 38.4 85.333334 85.333333V768c0 46.933333-38.4 85.333333-85.333334 85.333333z m-349.866666-426.666666V490.666667C439.466667 550.4 379.733333 597.333333 320 597.333333S200.533333 550.4 200.533333 490.666667V426.666667c-25.6 0-51.2-25.6-51.2-51.2v-149.333334c0-29.866667 25.6-55.466667 51.2-55.466666h234.666667c29.866667 0 55.466667 25.6 55.466667 51.2v149.333333c0 29.866667-25.6 55.466667-51.2 55.466667zM384 426.666667H256V490.666667c0 34.133333 29.866667 55.466667 64 55.466666S384 524.8 384 490.666667V426.666667z"  horiz-adv-x="1024" />

    
    <glyph glyph-name="person_add_disabled_px_rounded" unicode="&#60776;" d="M630.186667 422.826667c7.253333-0.853333 14.506667-2.133333 22.186666-2.133334 94.293333 0 170.666667 76.373333 170.666667 170.666667s-76.373333 170.666667-170.666667 170.666667-170.666667-76.373333-170.666666-170.666667c0-7.68 1.28-14.933333 2.133333-22.186667l146.346667-146.346666z m94.293333-94.293334l244.906667-244.906666c14.08 7.253333 24.32 21.333333 24.32 38.4v42.666666c0 91.306667-151.893333 149.333333-269.226667 163.84zM102.826667 829.44c-8.106667 7.68-18.773333 12.373333-29.866667 12.373333s-22.186667-4.693333-30.293333-12.373333a42.496 42.496 0 0 1 0-60.16l140.373333-140.373333v-122.88h-85.333333c-23.466667 0-42.666667-19.2-42.666667-42.666667s19.2-42.666667 42.666667-42.666667h85.333333v-85.333333c0-23.466667 19.2-42.666667 42.666667-42.666667s42.666667 19.2 42.666666 42.666667v85.333333h122.88l107.093334-107.093333c-93.866667-25.6-187.306667-76.373333-187.306667-148.906667v-42.666666c0-23.466667 19.2-42.666667 42.666667-42.666667h378.88l140.373333-140.373333a42.496 42.496 0 1 1 60.16 60.16L102.826667 829.44z m165.546666-323.413333v37.546666l37.546667-37.546666h-37.546667z"  horiz-adv-x="1024" />

    
    <glyph glyph-name="phonelink_erase_px_rounded" unicode="&#60777;" d="M526.933333 567.466667a29.866667 29.866667 0 0 1-42.666666 0l-149.333334-149.333334-149.333333 149.333334a29.866667 29.866667 0 0 1-42.666667 0 29.866667 29.866667 0 0 1 0-42.666667l149.333334-149.333333-149.333334-149.333334a29.866667 29.866667 0 0 1 0-42.666666 29.866667 29.866667 0 0 1 42.666667 0l149.333333 149.333333 149.333334-149.333333a29.866667 29.866667 0 0 1 42.666666 0 29.866667 29.866667 0 0 1 0 42.666666l-149.333333 149.333334 149.333333 149.333333c12.373333 11.946667 12.373333 30.72 0 42.666667z m277.333334 285.866666h-426.666667c-46.933333 0-85.333333-38.4-85.333333-85.333333v-85.333333c0-23.466667 19.2-42.666667 42.666666-42.666667s42.666667 19.2 42.666667 42.666667V725.333333h426.666667v-682.666666h-426.666667v42.666666c0 23.466667-19.2 42.666667-42.666667 42.666667s-42.666667-19.2-42.666666-42.666667v-85.333333c0-46.933333 38.4-85.333333 85.333333-85.333333h426.666667c46.933333 0 85.333333 38.4 85.333333 85.333333V768c0 46.933333-38.4 85.333333-85.333333 85.333333z"  horiz-adv-x="1024" />

    
    <glyph glyph-name="phonelink_setup_px_rounded" unicode="&#60778;" d="M294.826667 768v-85.333333c0-23.466667 19.2-42.666667 42.666666-42.666667s42.666667 19.2 42.666667 42.666667V725.333333h426.666667v-682.666666h-426.666667v42.666666c0 23.466667-19.2 42.666667-42.666667 42.666667s-42.666667-19.2-42.666666-42.666667v-85.333333c0-46.933333 38.4-85.333333 85.333333-85.333333h426.666667c46.933333 0 85.333333 38.4 85.333333 85.333333V768c0 46.933333-38.4 85.333333-85.333333 85.333333h-426.666667c-46.933333 0-85.333333-38.4-85.333333-85.333333z m106.666666-533.333333c12.373333 5.12 23.466667 12.373333 34.133334 20.48l-0.853334-1.28 43.093334-16.64c9.813333-3.84 20.906667 0 26.026666 9.386666l35.84 62.293334c5.12 8.96 2.986667 20.906667-5.12 27.306666l-36.266666 29.013334-0.853334-1.28c0.853333 6.826667 2.133333 13.653333 2.133334 20.48s-1.28 13.653333-2.133334 20.48l0.853334-1.28 36.266666 29.013333c8.106667 6.4 10.24 18.346667 5.12 27.306667l-35.84 62.293333a21.290667 21.290667 0 0 1-26.026666 9.386667l-43.093334-16.64 0.853334-1.28c-10.666667 7.253333-21.76 14.506667-34.133334 19.626666l-7.253333 46.08A20.821333 20.821333 0 0 1 373.333333 597.333333H301.653333c-10.666667 0-19.626667-7.68-20.906666-17.92L273.493333 533.333333c-12.373333-5.12-23.466667-12.373333-34.133333-20.48l0.853333 1.28-43.52 16.64c-9.813333 3.84-20.906667 0-26.026666-9.386666l-35.84-62.293334c-5.12-8.96-2.986667-20.906667 5.12-27.306666l36.266666-29.013334 0.853334 1.28c-0.853333-6.4-2.133333-13.226667-2.133334-20.053333s1.28-13.653333 2.133334-20.48l-0.853334 1.28-36.266666-29.013333c-8.106667-6.4-10.24-18.346667-5.12-27.306667L170.666667 246.186667c5.12-8.96 16.213333-13.226667 26.026666-9.386667l43.093334 16.64-0.426667 1.706667c10.666667-8.106667 21.76-15.36 34.133333-20.48l7.253334-45.653334c1.28-10.666667 10.24-18.346667 20.906666-18.346666h71.68c10.666667 0 19.626667 7.68 20.906667 17.92l7.253333 46.08zM252.16 384c0 46.933333 38.4 85.333333 85.333333 85.333333s85.333333-38.4 85.333334-85.333333-38.4-85.333333-85.333334-85.333333-85.333333 38.4-85.333333 85.333333z"  horiz-adv-x="1024" />

    
    <glyph glyph-name="phonelink_ring_px_rounded" unicode="&#60779;" d="M597.76 853.333333h-426.666667c-46.933333 0-85.333333-38.4-85.333333-85.333333v-768c0-46.933333 38.4-85.333333 85.333333-85.333333h426.666667c46.933333 0 85.333333 38.4 85.333333 85.333333V768c0 46.933333-38.4 85.333333-85.333333 85.333333z m0-810.666666h-426.666667V725.333333h426.666667v-682.666666z m282.88 500.906666a29.824 29.824 0 0 1-44.373333 2.56l-1.28-1.28c-10.666667-10.666667-11.093333-27.733333-2.133334-39.68 53.76-69.973333 53.333333-165.12-0.853333-237.653333-8.96-11.946667-8.106667-28.586667 2.133333-39.253333l2.133334-2.133334c12.373333-12.373333 32.426667-11.093333 43.946666 2.133334 76.8 90.88 76.8 221.44 0.426667 315.306666z m-136.96-90.026666l-2.56-2.56c-8.533333-8.533333-11.093333-21.333333-6.4-32.426667 8.96-20.906667 8.96-43.946667 0-64.853333-4.693333-11.093333-2.133333-23.893333 6.4-32.426667l3.413333-3.413333c13.653333-13.653333 37.12-10.666667 46.506667 6.4 20.906667 37.973333 20.906667 82.773333-0.426667 122.026666-4.266667 8.533333-12.373333 14.08-21.76 15.786667s-18.346667-1.706667-25.173333-8.533333z"  horiz-adv-x="1024" />

    
    <glyph glyph-name="present_to_all_px_rounded" unicode="&#60780;" d="M896 768H128c-47.36 0-85.333333-37.973333-85.333333-85.333333v-597.333334c0-47.36 37.973333-85.333333 85.333333-85.333333h768c47.36 0 85.333333 37.973333 85.333333 85.333333V682.666667c0 47.36-37.973333 85.333333-85.333333 85.333333z m-42.666667-683.52H170.666667c-23.466667 0-42.666667 19.2-42.666667 42.666667V640.853333c0 23.466667 19.2 42.666667 42.666667 42.666667h682.666666c23.466667 0 42.666667-19.2 42.666667-42.666667v-513.706666c0-23.466667-19.2-42.666667-42.666667-42.666667zM426.666667 384H341.333333l155.733334 155.733333c8.533333 8.533333 21.76 8.533333 30.293333 0L682.666667 384h-85.333334v-170.666667h-170.666666v170.666667z"  horiz-adv-x="1024" />

    
    <glyph glyph-name="print_disabled_px_rounded" unicode="&#60781;" d="M124.16 830.72c-8.106667 7.68-18.773333 12.373333-29.866667 12.373333s-22.186667-4.693333-30.293333-12.373333a42.496 42.496 0 0 1 0-60.16l182.186667-182.186667a127.914667 127.914667 0 0 1-127.146667-128v-170.666666c0-46.933333 38.4-85.333333 85.333333-85.333334h85.333334v-85.333333c0-46.933333 38.4-85.333333 85.333333-85.333333h341.333333c23.466667 0 44.373333 9.386667 59.733334 24.746666l120.746666-120.746666a42.496 42.496 0 1 1 60.16 60.16L124.16 830.72z m549.546667-711.68h-256c-23.466667 0-42.666667 19.2-42.666667 42.666667v170.666666h127.146667l201.386666-201.386666c-8.106667-7.253333-18.346667-11.946667-29.866666-11.946667z m170.666666 469.333333h-357.12l384-384h15.786667c46.933333 0 85.333333 38.4 85.333333 85.333334v170.666666c0 70.826667-57.173333 128-128 128z m0-170.666666c-23.466667 0-42.666667 19.2-42.666666 42.666666s19.2 42.666667 42.666666 42.666667 42.666667-19.2 42.666667-42.666667-19.2-42.666667-42.666667-42.666666z m-85.333333 213.333333c23.466667 0 42.666667 19.2 42.666667 42.666667v85.333333c0 23.466667-19.2 42.666667-42.666667 42.666667h-426.666667c-15.786667 0-29.013333-8.96-36.266666-21.76l148.48-148.906667h314.453333z"  horiz-adv-x="1024" />

    
    <glyph glyph-name="screen_share_px_rounded" unicode="&#60782;" d="M853.333333 128c46.933333 0 85.333333 38.4 85.333334 85.333333V640c0 46.933333-38.4 85.333333-85.333334 85.333333H170.666667c-46.933333 0-85.333333-38.4-85.333334-85.333333v-426.666667a85.333333 85.333333 0 0 1 85.333334-85.333333H42.666667c-23.466667 0-42.666667-19.2-42.666667-42.666667s19.2-42.666667 42.666667-42.666666h938.666666c23.466667 0 42.666667 19.2 42.666667 42.666666s-19.2 42.666667-42.666667 42.666667h-128z m-298.666666 150.613333v93.44c-118.613333 0-196.693333-36.266667-256-116.053333 23.893333 113.92 90.026667 227.413333 256 250.453333V597.333333l154.026666-143.36c8.96-8.533333 8.96-22.613333 0-31.146666L554.666667 278.613333z"  horiz-adv-x="1024" />

    
    <glyph glyph-name="ring_volume_px_rounded" unicode="&#60783;" d="M509.013333 574.293333h1.28c23.466667 0 42.24 18.773333 42.24 41.813334V745.813333c0 23.04-18.773333 41.813333-41.813333 41.813334h-1.28c-23.466667 0-42.24-18.773333-42.24-41.813334v-129.28c0-23.466667 18.773333-42.24 41.813333-42.24z m209.92-90.026666c16.64-16.64 43.093333-16.64 59.733334 0 26.453333 26.88 64.853333 65.706667 91.733333 92.586666a41.472 41.472 0 0 1 0 59.306667 42.24 42.24 0 0 1-59.306667 0l-92.586666-91.733333a41.472 41.472 0 0 1 0-59.306667l0.426666-0.853333zM241.493333 484.693333c16.213333-16.64 43.093333-16.64 59.733334 0a42.24 42.24 0 0 1 0 59.306667L209.493333 636.586667a41.472 41.472 0 0 1-59.306666 0l-0.853334-0.426667a41.472 41.472 0 0 1 0-59.306667c26.88-26.453333 65.706667-65.28 92.16-92.16z m750.08-304.213333c-273.493333 241.493333-685.653333 241.493333-959.146666 0-36.266667-32-36.266667-88.746667-2.133334-122.88l52.053334-52.053333c30.72-30.72 79.36-33.28 113.493333-6.4l85.333333 67.84c20.48 16.213333 32.426667 40.96 32.426667 66.986666v110.933334c128.853333 41.813333 268.373333 42.24 397.653333 0v-111.36c0-26.026667 11.946667-50.773333 32.426667-66.986667l84.906667-67.413333c34.133333-26.88 82.773333-24.32 113.493333 6.4l52.053333 52.053333c33.706667 34.133333 33.706667 90.88-2.56 122.88z"  horiz-adv-x="1024" />

    
    <glyph glyph-name="rss_feed_px_rounded" unicode="&#60784;" d="M274.773333 239.786667c-51.2 0-93.013333-41.813333-93.013333-93.013334 0-51.2 41.813333-93.013333 93.013333-93.013333s93.013333 41.813333 93.013334 93.013333c0 51.2-41.813333 93.013333-93.013334 93.013334z m-25.173333 230.826666c-35.84 5.973333-67.84-23.466667-67.84-59.733333 0-30.293333 22.613333-54.613333 52.48-59.733333 124.586667-21.76 222.72-120.32 244.906667-244.906667 5.12-29.866667 29.44-52.48 59.733333-52.48 36.266667 0 65.706667 32 60.16 67.84a422.144 422.144 0 0 1-349.44 349.013333z m-1.28 243.626667c-35.413333 3.84-66.56-24.746667-66.56-60.16 0-31.146667 23.466667-56.746667 54.186667-59.733333 256.426667-25.6 460.373333-229.546667 485.973333-485.973334 2.986667-31.146667 28.586667-54.613333 59.733333-54.613333 35.84 0 64 31.146667 60.586667 66.56-31.146667 313.173333-280.32 562.773333-593.92 593.92z"  horiz-adv-x="1024" />

    
    <glyph glyph-name="sentiment_satisfied_alt_px_rounded" unicode="&#60785;" d="M661.333333 554.666667c-35.413333 0-64-28.586667-64-64s28.586667-64 64-64 64 28.586667 64 64S696.746667 554.666667 661.333333 554.666667z m-298.666666 0C327.253333 554.666667 298.666667 526.08 298.666667 490.666667S327.253333 426.666667 362.666667 426.666667s64 28.586667 64 64S398.08 554.666667 362.666667 554.666667z m148.906666 256C276.053333 810.666667 85.333333 619.52 85.333333 384s190.72-426.666667 426.24-426.666667C747.52-42.666667 938.666667 148.48 938.666667 384S747.52 810.666667 511.573333 810.666667zM512 42.666667c-188.586667 0-341.333333 152.746667-341.333333 341.333333s152.746667 341.333333 341.333333 341.333333 341.333333-152.746667 341.333333-341.333333-152.746667-341.333333-341.333333-341.333333z m188.16 260.693333a31.786667 31.786667 0 0 1-43.946667-10.24C624.64 243.2 570.88 213.333333 512 213.333333s-112.64 29.866667-144.213333 80.213334a31.872 31.872 0 1 1-54.186667-33.706667C357.12 190.293333 430.933333 149.333333 512 149.333333s154.88 41.386667 198.4 110.08c9.386667 14.933333 4.693333 34.56-10.24 43.946667z"  horiz-adv-x="1024" />

    
    <glyph glyph-name="location_on_px_rounded" unicode="&#60786;" d="M512 799.146667c-165.12 0-298.666667-133.546667-298.666667-298.666667 0-177.92 188.586667-423.253333 266.24-516.693333 17.066667-20.48 48.213333-20.48 65.28 0C622.08 77.653333 810.666667 322.56 810.666667 500.48c0 165.546667-133.546667 298.666667-298.666667 298.666667z m0-405.333334a106.666667 106.666667 0 0 0 0 213.333334 106.666667 106.666667 0 0 0 0-213.333334z"  horiz-adv-x="1024" />

    
    <glyph glyph-name="portable_wifi_off_px_rounded" unicode="&#60787;" d="M115.626667 745.386667a42.496 42.496 0 0 1 0-60.16L174.933333 625.92C119.04 553.386667 85.333333 462.933333 85.333333 364.373333c0-140.8 68.266667-265.386667 173.226667-343.04 20.48-14.933333 49.493333-8.96 62.293333 13.226667 10.666667 18.346667 5.973333 42.24-11.093333 55.04C225.706667 151.893333 170.666667 251.306667 170.666667 364.373333c0 75.093333 24.32 144.213333 65.28 200.106667l61.013333-61.44a254.72 254.72 0 0 1 46.933333-331.093333c19.626667-17.066667 50.773333-10.666667 64 11.946666l0.426667 0.426667c10.24 17.92 5.546667 40.106667-9.813333 53.76A168.405333 168.405333 0 0 0 341.333333 364.373333c0 27.733333 7.253333 53.333333 18.773334 76.373334l67.413333-67.413334-0.853333-8.96c0-46.933333 38.4-85.333333 85.333333-85.333333l8.96 0.853333 290.56-290.56a42.496 42.496 0 1 1 60.16 60.16L176.213333 745.386667c-16.64 16.64-43.946667 16.64-60.586666 0z m640-458.666667c7.68 24.32 12.373333 50.773333 12.373333 77.653333 0 141.226667-114.773333 256-256 256-26.88 0-53.333333-4.693333-77.653333-12.373333l73.386666-73.386667c1.28 0 2.56 0.426667 4.266667 0.426667 94.293333 0 170.666667-76.373333 170.666667-170.666667 0-1.706667-0.426667-2.986667-0.426667-4.693333l73.386667-72.96zM512 705.706667c188.586667 0 341.333333-152.746667 341.333333-341.333334 0-51.2-12.373333-98.986667-32.853333-142.933333l63.573333-63.573333A418.986667 418.986667 0 0 1 938.666667 364.373333c0 235.52-191.146667 426.666667-426.666667 426.666667-75.093333 0-145.066667-20.48-206.506667-54.613333l63.146667-63.146667c43.52 20.48 92.16 32.426667 143.36 32.426667z"  horiz-adv-x="1024" />

    
    <glyph glyph-name="stay_current_portrait_px_rounded" unicode="&#60788;" d="M725.333333 852.906667L298.24 853.333333C251.306667 853.333333 213.333333 814.933333 213.333333 768v-768c0-46.933333 37.973333-85.333333 84.906667-85.333333h426.666667c46.933333 0 85.333333 38.4 85.333333 85.333333V768c0.426667 46.933333-38.4 84.906667-84.906667 84.906667zM725.333333 85.333333H298.666667V682.666667h426.666666v-597.333334z"  horiz-adv-x="1024" />

    
    <glyph glyph-name="textsms_px_rounded" unicode="&#60789;" d="M853.333333 810.666667H170.666667c-46.933333 0-84.906667-38.4-84.906667-85.333334L85.333333-42.666667l170.666667 170.666667h597.333333c46.933333 0 85.333333 38.4 85.333334 85.333333V725.333333c0 46.933333-38.4 85.333333-85.333334 85.333334zM384 426.666667H298.666667V512h85.333333v-85.333333z m170.666667 0h-85.333334V512h85.333334v-85.333333z m170.666666 0h-85.333333V512h85.333333v-85.333333z"  horiz-adv-x="1024" />

    
    <glyph glyph-name="stay_primary_landscape_px_rounded" unicode="&#60790;" d="M43.093333 597.333333L42.666667 170.666667c0-46.933333 38.4-85.333333 85.333333-85.333334h768c46.933333 0 85.333333 38.4 85.333333 85.333334V597.333333c0 46.933333-38.4 85.333333-85.333333 85.333334H128c-46.933333 0-84.906667-38.4-84.906667-85.333334zM810.666667 597.333333v-426.666666H213.333333V597.333333h597.333334z"  horiz-adv-x="1024" />

    
    <glyph glyph-name="stop_screen_share_px_rounded" unicode="&#60791;" d="M981.333333 133.973333h-51.2l76.373334-76.373333c10.24 7.68 17.493333 19.626667 17.493333 33.706667 0 23.466667-19.2 42.666667-42.666667 42.666666zM137.813333 804.693333c-16.64 16.64-43.946667 16.64-60.586666 0s-16.64-43.52 0-60.16l35.84-36.693333s-28.16-24.32-28.16-62.72c0.426667-38.4 0.426667-425.813333 0.426666-425.813333l0.426667-0.426667c0-46.506667 37.546667-84.48 84.053333-84.906667H42.666667c-23.466667 0-42.666667-19.2-42.666667-42.666666s19.2-42.666667 42.666667-42.666667h730.88l85.333333-85.333333a42.496 42.496 0 1 1 60.16 60.16L137.813333 804.693333zM298.666667 261.973333c13.226667 63.146667 40.106667 125.013333 88.746666 172.8l67.84-67.84c-65.706667-16.213333-115.626667-49.92-156.586666-104.96z m256 250.453334v41.813333c0 18.773333 22.186667 28.16 35.84 15.786667L640 523.52l68.693333-64c8.96-8.533333 8.96-22.613333 0-31.146667l-37.973333-35.413333 238.08-238.08c18.346667 15.786667 29.866667 38.4 29.866667 64.426667v426.666666c0 46.506667-37.973333 84.48-84.48 84.48H332.8l219.306667-218.88c0.853333 0.426667 1.706667 0.853333 2.56 0.853334z"  horiz-adv-x="1024" />

    
    <glyph glyph-name="stay_current_landscape_px_rounded" unicode="&#60792;" d="M43.093333 597.333333L42.666667 170.666667c0-46.933333 38.4-85.333333 85.333333-85.333334h768c46.933333 0 85.333333 38.4 85.333333 85.333334V597.333333c0 46.933333-38.4 85.333333-85.333333 85.333334H128c-46.933333 0-84.906667-38.4-84.906667-85.333334zM810.666667 597.333333v-426.666666H213.333333V597.333333h597.333334z"  horiz-adv-x="1024" />

    
    <glyph glyph-name="speaker_phone_px_rounded" unicode="&#60793;" d="M331.093333 540.16l0.853334-0.853333c14.933333-14.933333 37.973333-16.213333 55.466666-3.84 35.413333 24.32 78.506667 39.253333 124.586667 39.253333s89.173333-14.933333 124.586667-39.68c17.066667-12.373333 40.533333-11.093333 55.466666 3.84l0.853334 0.853333c17.92 17.92 16.64 48.64-3.84 63.573334-49.92 36.266667-110.933333 57.6-177.066667 57.6s-127.146667-21.333333-176.64-57.173334c-20.906667-14.933333-22.186667-45.226667-4.266667-63.573333zM512 832c-111.786667 0-214.613333-39.68-295.253333-105.386667A43.093333 43.093333 0 0 1 213.333333 662.613333c15.36-15.36 39.68-16.64 56.32-2.986666C335.36 714.24 420.266667 746.24 512 746.24s176.64-32.426667 242.773333-86.613333c16.64-13.653333 40.96-12.373333 56.32 2.986666 17.92 17.92 16.213333 47.36-3.413333 63.573334C726.613333 792.32 623.786667 832 512 832z m122.026667-384.853333l-244.053334 0.426666c-26.88 0-48.64-21.76-48.64-48.64v-414.293333c0-26.88 21.76-48.64 48.64-48.64h243.626667c26.88 0 48.64 21.76 48.64 48.64v414.293333c0.426667 26.88-21.333333 48.213333-48.213333 48.213334zM640 21.333333H384v341.333334h256v-341.333334z"  horiz-adv-x="1024" />

    
    <glyph glyph-name="swap_calls_px_rounded" unicode="&#60794;" d="M753.066667 689.066667l-119.04-119.04c-13.653333-13.653333-4.266667-36.693333 14.933333-36.693334H725.333333v-293.546666c0-42.666667-28.586667-82.346667-70.826666-89.173334-53.333333-8.96-99.84 32.426667-99.84 84.053334V526.08c0 89.173333-65.28 168.533333-154.026667 177.066667A170.581333 170.581333 0 0 1 213.333333 533.333333v-298.666666H136.96c-19.2 0-28.586667-23.04-14.933333-36.266667l119.04-119.04c8.533333-8.533333 21.76-8.533333 30.293333 0l119.04 119.04a21.333333 21.333333 0 0 1-15.36 36.266667H298.666667V528.213333c0 42.666667 28.586667 82.346667 70.826666 89.173334C422.826667 626.346667 469.333333 584.96 469.333333 533.333333v-291.413333c0-89.173333 65.28-168.533333 154.026667-177.066667 101.546667-9.813333 187.306667 69.973333 187.306667 169.813334v298.666666h76.373333c19.2 0 28.586667 23.04 14.933333 36.266667l-119.04 119.04c-8.106667 8.533333-21.76 8.533333-29.866666 0.426667z"  horiz-adv-x="1024" />

    
    <glyph glyph-name="voicemail_px_rounded" unicode="&#60795;" d="M789.333333 618.666667C659.626667 618.666667 554.666667 513.706667 554.666667 384c0-56.746667 20.053333-108.8 53.76-149.333333H415.573333c33.706667 40.533333 53.76 92.586667 53.76 149.333333 0 129.706667-104.96 234.666667-234.666666 234.666667S0 513.706667 0 384s104.96-234.666667 234.666667-234.666667h554.666666c129.706667 0 234.666667 104.96 234.666667 234.666667s-104.96 234.666667-234.666667 234.666667z m-554.666666-384C152.32 234.666667 85.333333 301.653333 85.333333 384s66.986667 149.333333 149.333334 149.333333S384 466.346667 384 384s-66.986667-149.333333-149.333333-149.333333z m554.666666 0c-82.346667 0-149.333333 66.986667-149.333333 149.333333s66.986667 149.333333 149.333333 149.333333S938.666667 466.346667 938.666667 384s-66.986667-149.333333-149.333334-149.333333z"  horiz-adv-x="1024" />

    
    <glyph glyph-name="vpn_key_px_rounded" unicode="&#60796;" d="M539.733333 469.333333a255.914667 255.914667 0 0 1-293.546666 165.546667c-97.706667-19.626667-177.066667-97.706667-197.546667-195.413333A256.256 256.256 0 0 1 298.666667 128a255.573333 255.573333 0 0 1 241.066666 170.666667H725.333333v-85.333334c0-46.933333 38.4-85.333333 85.333334-85.333333s85.333333 38.4 85.333333 85.333333v85.333334c46.933333 0 85.333333 38.4 85.333333 85.333333s-38.4 85.333333-85.333333 85.333333h-356.266667zM298.666667 298.666667c-46.933333 0-85.333333 38.4-85.333334 85.333333s38.4 85.333333 85.333334 85.333333 85.333333-38.4 85.333333-85.333333-38.4-85.333333-85.333333-85.333333z"  horiz-adv-x="1024" />

    
    <glyph glyph-name="unsubscribe_px_rounded" unicode="&#60797;" d="M768 384c39.253333 0 74.666667-11.093333 106.24-29.44V661.333333c0 46.933333-37.973333 85.333333-84.906667 85.333334h-597.333333c-46.933333 0-85.333333-38.4-85.333333-85.333334v-426.666666c0-46.933333 38.4-85.333333 85.333333-85.333334h364.8c-0.853333 7.253333-2.133333 14.08-2.133333 21.333334 0 117.76 95.573333 213.333333 213.333333 213.333333z m-239.36 61.866667c-23.893333-11.946667-52.48-11.946667-76.373333 0l-239.36 119.466666a38.101333 38.101333 0 0 0-20.906667 34.133334c0 28.16 29.866667 46.933333 55.04 34.133333L490.666667 512l243.626666 121.6a37.973333 37.973333 0 0 0 55.04-34.133333c0-14.506667-8.106667-27.733333-20.906666-34.133334l-239.786667-119.466666zM768 320c-82.346667 0-149.333333-66.986667-149.333333-149.333333s66.986667-149.333333 149.333333-149.333334 149.333333 66.986667 149.333333 149.333334-66.986667 149.333333-149.333333 149.333333z m85.333333-149.333333c0-11.946667-9.386667-21.333333-21.333333-21.333334h-128c-11.946667 0-21.333333 9.386667-21.333333 21.333334s9.386667 21.333333 21.333333 21.333333h128c11.946667 0 21.333333-9.386667 21.333333-21.333333z"  horiz-adv-x="1024" />

    
    <glyph glyph-name="stay_primary_portrait_px_rounded" unicode="&#60798;" d="M725.333333 852.906667L298.24 853.333333C251.306667 853.333333 213.333333 814.933333 213.333333 768v-768c0-46.933333 37.973333-85.333333 84.906667-85.333333h426.666667c46.933333 0 85.333333 38.4 85.333333 85.333333V768c0.426667 46.933333-38.4 84.906667-84.906667 84.906667zM725.333333 85.333333H298.666667V682.666667h426.666666v-597.333334z"  horiz-adv-x="1024" />

    
    <glyph glyph-name="add_box_px_rounded" unicode="&#60799;" d="M810.666667 768H213.333333a85.333333 85.333333 0 0 1-85.333333-85.333333v-597.333334a85.333333 85.333333 0 0 1 85.333333-85.333333h597.333334c46.933333 0 85.333333 38.4 85.333333 85.333333V682.666667c0 46.933333-38.4 85.333333-85.333333 85.333333z m-128-426.666667h-128v-128c0-23.466667-19.2-42.666667-42.666667-42.666666s-42.666667 19.2-42.666667 42.666666v128H341.333333c-23.466667 0-42.666667 19.2-42.666666 42.666667s19.2 42.666667 42.666666 42.666667h128V554.666667c0 23.466667 19.2 42.666667 42.666667 42.666666s42.666667-19.2 42.666667-42.666666v-128h128c23.466667 0 42.666667-19.2 42.666666-42.666667s-19.2-42.666667-42.666666-42.666667z"  horiz-adv-x="1024" />

    
    <glyph glyph-name="add_circle_px_rounded" unicode="&#60800;" d="M512 810.666667C276.48 810.666667 85.333333 619.52 85.333333 384s191.146667-426.666667 426.666667-426.666667 426.666667 191.146667 426.666667 426.666667S747.52 810.666667 512 810.666667z m170.666667-469.333334h-128v-128c0-23.466667-19.2-42.666667-42.666667-42.666666s-42.666667 19.2-42.666667 42.666666v128H341.333333c-23.466667 0-42.666667 19.2-42.666666 42.666667s19.2 42.666667 42.666666 42.666667h128V554.666667c0 23.466667 19.2 42.666667 42.666667 42.666666s42.666667-19.2 42.666667-42.666666v-128h128c23.466667 0 42.666667-19.2 42.666666-42.666667s-19.2-42.666667-42.666666-42.666667z"  horiz-adv-x="1024" />

    
    <glyph glyph-name="add_circle_outline_px_rounded" unicode="&#60801;" d="M512 597.333333c-23.466667 0-42.666667-19.2-42.666667-42.666666v-128H341.333333c-23.466667 0-42.666667-19.2-42.666666-42.666667s19.2-42.666667 42.666666-42.666667h128v-128c0-23.466667 19.2-42.666667 42.666667-42.666666s42.666667 19.2 42.666667 42.666666v128h128c23.466667 0 42.666667 19.2 42.666666 42.666667s-19.2 42.666667-42.666666 42.666667h-128V554.666667c0 23.466667-19.2 42.666667-42.666667 42.666666z m0 213.333334C276.48 810.666667 85.333333 619.52 85.333333 384s191.146667-426.666667 426.666667-426.666667 426.666667 191.146667 426.666667 426.666667S747.52 810.666667 512 810.666667z m0-768c-188.16 0-341.333333 153.173333-341.333333 341.333333s153.173333 341.333333 341.333333 341.333333 341.333333-153.173333 341.333333-341.333333-153.173333-341.333333-341.333333-341.333333z"  horiz-adv-x="1024" />

    
    <glyph glyph-name="add_px_rounded" unicode="&#60802;" d="M768 341.333333h-213.333333v-213.333333c0-23.466667-19.2-42.666667-42.666667-42.666667s-42.666667 19.2-42.666667 42.666667v213.333333H256c-23.466667 0-42.666667 19.2-42.666667 42.666667s19.2 42.666667 42.666667 42.666667h213.333333V640c0 23.466667 19.2 42.666667 42.666667 42.666667s42.666667-19.2 42.666667-42.666667v-213.333333h213.333333c23.466667 0 42.666667-19.2 42.666667-42.666667s-19.2-42.666667-42.666667-42.666667z"  horiz-adv-x="1024" />

    
    <glyph glyph-name="attribution_px_rounded" unicode="&#60803;" d="M512 533.333333c-38.826667 0-117.333333-19.626667-117.333333-58.88V298.666667c0-11.946667 9.386667-21.333333 21.333333-21.333334h42.666667v-138.666666a53.333333 53.333333 0 0 1 106.666666 0V277.333333h42.666667c11.946667 0 21.333333 9.386667 21.333333 21.333334V474.453333c0 38.826667-78.506667 58.88-117.333333 58.88zM512 810.666667C276.053333 810.666667 85.333333 619.946667 85.333333 384s190.72-426.666667 426.666667-426.666667 426.666667 191.146667 426.666667 426.666667S747.52 810.666667 512 810.666667z m0-768c-188.586667 0-341.333333 152.746667-341.333333 341.333333s152.746667 341.333333 341.333333 341.333333 341.333333-152.746667 341.333333-341.333333-152.746667-341.333333-341.333333-341.333333z m0 640c-35.413333 0-64-28.586667-64-64S476.586667 554.666667 512 554.666667s64 28.586667 64 64S547.413333 682.666667 512 682.666667z"  horiz-adv-x="1024" />

    
    <glyph glyph-name="archive_px_rounded" unicode="&#60804;" d="M876.373333 672.853333l-59.306666 71.68C805.546667 759.04 788.053333 768 768 768H256c-20.053333 0-37.546667-8.96-49.493333-23.466667L147.626667 672.853333C135.253333 658.346667 128 639.146667 128 618.666667V85.333333c0-46.933333 38.4-85.333333 85.333333-85.333333h597.333334c46.933333 0 85.333333 38.4 85.333333 85.333333V618.666667c0 20.48-7.253333 39.68-19.626667 54.186666z m-379.306666-508.586666L277.333333 384H426.666667v85.333333h170.666666v-85.333333h149.333334l-219.733334-219.733333c-8.106667-8.106667-21.76-8.106667-29.866666 0zM218.453333 682.666667l34.56 42.666666h512l40.106667-42.666666H218.453333z"  horiz-adv-x="1024" />

    
    <glyph glyph-name="block_px_rounded" unicode="&#60805;" d="M512 810.666667C276.48 810.666667 85.333333 619.52 85.333333 384s191.146667-426.666667 426.666667-426.666667 426.666667 191.146667 426.666667 426.666667S747.52 810.666667 512 810.666667zM170.666667 384c0 188.586667 152.746667 341.333333 341.333333 341.333333 78.933333 0 151.466667-26.88 209.066667-72.106666L242.773333 174.933333A337.152 337.152 0 0 0 170.666667 384z m341.333333-341.333333c-78.933333 0-151.466667 26.88-209.066667 72.106666L781.226667 593.066667A337.152 337.152 0 0 0 853.333333 384c0-188.586667-152.746667-341.333333-341.333333-341.333333z"  horiz-adv-x="1024" />

    
    <glyph glyph-name="ballot_px_rounded" unicode="&#60806;" d="M597.333333 490.666667h128c23.466667 0 42.666667 19.2 42.666667 42.666666s-19.2 42.666667-42.666667 42.666667h-128c-23.466667 0-42.666667-19.2-42.666666-42.666667s19.2-42.666667 42.666666-42.666666z m0-298.666667h128c23.466667 0 42.666667 19.2 42.666667 42.666667s-19.2 42.666667-42.666667 42.666666h-128c-23.466667 0-42.666667-19.2-42.666666-42.666666s19.2-42.666667 42.666666-42.666667z m213.333334-192H213.333333c-46.933333 0-85.333333 38.4-85.333333 85.333333V682.666667c0 46.933333 38.4 85.333333 85.333333 85.333333h597.333334c46.933333 0 85.333333-38.4 85.333333-85.333333v-597.333334c0-46.933333-38.4-85.333333-85.333333-85.333333zM298.666667 426.666667h128c23.466667 0 42.666667 19.2 42.666666 42.666666V597.333333c0 23.466667-19.2 42.666667-42.666666 42.666667H298.666667c-23.466667 0-42.666667-19.2-42.666667-42.666667v-128c0-23.466667 19.2-42.666667 42.666667-42.666666z m0 170.666666h128v-128H298.666667V597.333333z m0-469.333333h128c23.466667 0 42.666667 19.2 42.666666 42.666667v128c0 23.466667-19.2 42.666667-42.666666 42.666666H298.666667c-23.466667 0-42.666667-19.2-42.666667-42.666666v-128c0-23.466667 19.2-42.666667 42.666667-42.666667z m0 170.666667h128v-128H298.666667v128z"  horiz-adv-x="1024" />

    
    <glyph glyph-name="backspace_px_rounded" unicode="&#60807;" d="M934.4 768h-640c-29.44 0-52.48-14.933333-67.84-37.546667L11.52 407.466667c-9.386667-14.506667-9.386667-32.853333 0-47.36l215.04-322.56c15.36-22.186667 38.4-37.546667 67.84-37.546667h640c46.933333 0 85.333333 38.4 85.333333 85.333333V682.666667c0 46.933333-38.4 85.333333-85.333333 85.333333z m-157.866667-567.466667a42.496 42.496 0 0 0-60.16 0l-123.306666 123.306667-123.306667-123.306667a42.496 42.496 0 0 0-72.533333 29.866667c0 11.093333 4.693333 22.186667 12.373333 29.866667l123.306667 123.733333L409.6 507.306667c-8.106667 8.106667-12.373333 18.773333-12.373333 30.293333s4.266667 21.76 12.373333 29.866667a42.496 42.496 0 0 0 60.16 0l123.306667-123.306667 123.306666 123.306667a42.496 42.496 0 1 0 60.16-60.16L653.226667 384l123.306666-123.306667c16.213333-16.213333 16.213333-43.52 0-60.16z"  horiz-adv-x="1024" />

    
    <glyph glyph-name="clear_px_rounded" unicode="&#60808;" d="M780.8 652.373333a41.984 41.984 0 0 1-29.866667 12.373334c-11.093333 0-22.186667-4.693333-29.866666-12.373334L512 444.16 303.36 652.8a41.984 41.984 0 0 1-29.866667 12.373333c-11.093333 0-22.186667-4.693333-30.293333-12.373333a42.496 42.496 0 0 1 0-60.16L451.84 384 243.2 175.36a42.496 42.496 0 1 1 60.16-60.16L512 323.84l208.64-208.64a42.496 42.496 0 1 1 60.16 60.16L572.16 384l208.64 208.64c16.213333 16.213333 16.213333 43.52 0 59.733333z"  horiz-adv-x="1024" />

    
    <glyph glyph-name="cut_px_rounded" unicode="&#60809;" d="M411.306667 570.026667c12.373333 26.453333 17.92 56.746667 14.506666 89.173333-8.106667 73.813333-65.706667 136.533333-139.093333 148.906667a171.008 171.008 0 0 1-198.826667-198.4c12.8-73.386667 75.093333-130.986667 148.906667-139.093334 32.426667-3.413333 62.293333 2.133333 89.173333 14.506667L426.666667 384l-100.693334-100.693333c-26.453333 12.373333-56.746667 17.92-89.173333 14.506666-73.813333-8.106667-136.533333-65.706667-148.906667-139.093333a170.752 170.752 0 0 1 198.4-198.4c73.386667 12.8 130.986667 75.093333 139.093334 148.906667 3.413333 32.426667-2.133333 62.293333-14.506667 89.173333L512 298.666667l323.84-323.84c37.973333-37.973333 102.826667-11.093333 102.826667 42.666666v0.426667c0 15.786667-6.4 31.146667-17.493334 42.666667L411.306667 570.026667zM256 554.666667c-46.933333 0-85.333333 37.973333-85.333333 85.333333s38.4 85.333333 85.333333 85.333333 85.333333-37.973333 85.333333-85.333333-38.4-85.333333-85.333333-85.333333z m0-512a85.333333 85.333333 0 1 0-0.042667 170.624A85.333333 85.333333 0 0 0 256 42.666667z m256 320c-11.946667 0-21.333333 9.386667-21.333333 21.333333s9.386667 21.333333 21.333333 21.333333 21.333333-9.386667 21.333333-21.333333-9.386667-21.333333-21.333333-21.333333z m323.84 430.506666L554.666667 512l85.333333-85.333333 281.173333 281.173333c11.093333 11.093333 17.493333 26.453333 17.493334 42.666667V750.933333c0 53.333333-64.853333 80.213333-102.826667 42.24z"  horiz-adv-x="1024" />

    
    <glyph glyph-name="create_px_rounded" unicode="&#60810;" d="M128 151.04v-129.706667c0-11.946667 9.386667-21.333333 21.333333-21.333333h129.706667c5.546667 0 11.093333 2.133333 14.933333 6.4L759.893333 471.893333l-160 160L134.4 166.4c-4.266667-4.266667-6.4-9.386667-6.4-15.36zM883.626667 595.626667a42.496 42.496 0 0 1 0 60.16l-99.84 99.84a42.24 42.24 0 0 1-30.293334 12.373333c-11.093333 0-22.186667-4.693333-29.866666-12.373333l-78.08-78.08 160-160 78.08 78.08z"  horiz-adv-x="1024" />

    
    <glyph glyph-name="delete_sweep_px_rounded" unicode="&#60811;" d="M682.666667 213.333333h85.333333c23.466667 0 42.666667-19.2 42.666667-42.666666s-19.2-42.666667-42.666667-42.666667h-85.333333c-23.466667 0-42.666667 19.2-42.666667 42.666667s19.2 42.666667 42.666667 42.666666z m0 341.333334h213.333333c23.466667 0 42.666667-19.2 42.666667-42.666667s-19.2-42.666667-42.666667-42.666667h-213.333333c-23.466667 0-42.666667 19.2-42.666667 42.666667s19.2 42.666667 42.666667 42.666667z m0-170.666667h170.666666c23.466667 0 42.666667-19.2 42.666667-42.666667s-19.2-42.666667-42.666667-42.666666h-170.666666c-23.466667 0-42.666667 19.2-42.666667 42.666666s19.2 42.666667 42.666667 42.666667zM128 128c0-46.933333 38.4-85.333333 85.333333-85.333333h256c46.933333 0 85.333333 38.4 85.333334 85.333333V554.666667H128v-426.666667zM554.666667 682.666667h-85.333334l-30.293333 30.293333c-7.68 7.68-18.773333 12.373333-29.866667 12.373333H273.493333c-11.093333 0-22.186667-4.693333-29.866666-12.373333L213.333333 682.666667H128c-23.466667 0-42.666667-19.2-42.666667-42.666667s19.2-42.666667 42.666667-42.666667h426.666667c23.466667 0 42.666667 19.2 42.666666 42.666667s-19.2 42.666667-42.666666 42.666667z"  horiz-adv-x="1024" />

    
    <glyph glyph-name="drafts_px_rounded" unicode="&#60812;" d="M938.24 497.493333c0 30.72-15.786667 57.6-40.106667 72.533334l-343.04 200.96c-26.453333 15.786667-59.733333 15.786667-86.186666 0L125.866667 570.026667c-24.32-14.933333-40.533333-41.813333-40.533334-72.533334v-426.666666c0-46.933333 38.4-85.333333 85.333334-85.333334h682.666666c46.933333 0 85.333333 38.4 85.333334 85.333334l-0.426667 426.666666z m-471.466667-185.173333l-307.2 192 309.333334 181.333333c26.453333 15.786667 59.733333 15.786667 86.186666 0l309.333334-181.333333-307.2-192c-27.733333-17.066667-62.72-17.066667-90.453334 0z"  horiz-adv-x="1024" />

    
    <glyph glyph-name="file_copy_px_rounded" unicode="&#60813;" d="M661.333333 853.333333h-469.333333c-46.933333 0-85.333333-38.4-85.333333-85.333333v-554.666667c0-23.466667 19.2-42.666667 42.666666-42.666666s42.666667 19.2 42.666667 42.666666V725.333333c0 23.466667 19.2 42.666667 42.666667 42.666667h426.666666c23.466667 0 42.666667 19.2 42.666667 42.666667s-19.2 42.666667-42.666667 42.666666z m25.173334-195.84l206.08-206.08c15.786667-15.786667 24.746667-37.546667 24.746666-60.16V0c0-46.933333-38.4-85.333333-85.333333-85.333333H362.24c-46.933333 0-84.906667 38.4-84.906667 85.333333l0.426667 597.333333c0 46.933333 37.973333 85.333333 84.906667 85.333334h263.253333c22.613333 0 44.373333-8.96 60.586667-25.173334zM661.333333 384H853.333333l-234.666666 234.666667V426.666667c0-23.466667 19.2-42.666667 42.666666-42.666667z"  horiz-adv-x="1024" />

    
    <glyph glyph-name="flag_px_rounded" unicode="&#60814;" d="M593.066667 661.333333l-10.24 51.2c-3.84 19.626667-21.333333 34.133333-41.813334 34.133334H234.666667c-23.466667 0-42.666667-19.2-42.666667-42.666667v-640c0-23.466667 19.2-42.666667 42.666667-42.666667s42.666667 19.2 42.666666 42.666667v256h238.933334l10.24-51.2c3.84-20.053333 21.333333-34.133333 41.813333-34.133333h221.013333c23.466667 0 42.666667 19.2 42.666667 42.666666v341.333334c0 23.466667-19.2 42.666667-42.666667 42.666666h-196.266666z"  horiz-adv-x="1024" />

    
    <glyph glyph-name="font_download_px_rounded" unicode="&#60815;" d="M423.68 320h176.64L512 555.52 423.68 320zM853.333333 810.666667H170.666667c-46.933333 0-85.333333-38.4-85.333334-85.333334v-682.666666c0-46.933333 38.4-85.333333 85.333334-85.333334h682.666666c46.933333 0 85.333333 38.4 85.333334 85.333334V725.333333c0 46.933333-38.4 85.333333-85.333334 85.333334z m-183.04-677.546667l-38.4 101.546667H391.253333l-37.973333-101.12a41.301333 41.301333 0 1 0-77.226667 29.44l181.333334 461.226666c9.386667 22.613333 30.72 37.12 54.613333 37.12s45.226667-14.506667 54.186667-37.12l181.333333-461.226666a41.301333 41.301333 0 0 0-38.4-56.32c-17.066667 0-32.426667 10.666667-38.826667 26.453333z"  horiz-adv-x="1024" />

    
    <glyph glyph-name="copy_px_rounded" unicode="&#60816;" d="M661.333333 853.333333h-469.333333c-46.933333 0-85.333333-38.4-85.333333-85.333333v-554.666667c0-23.466667 19.2-42.666667 42.666666-42.666666s42.666667 19.2 42.666667 42.666666V725.333333c0 23.466667 19.2 42.666667 42.666667 42.666667h426.666666c23.466667 0 42.666667 19.2 42.666667 42.666667s-19.2 42.666667-42.666667 42.666666z m170.666667-170.666666h-469.333333c-46.933333 0-85.333333-38.4-85.333334-85.333334v-597.333333c0-46.933333 38.4-85.333333 85.333334-85.333333h469.333333c46.933333 0 85.333333 38.4 85.333333 85.333333V597.333333c0 46.933333-38.4 85.333333-85.333333 85.333334z m-42.666667-682.666667h-384c-23.466667 0-42.666667 19.2-42.666666 42.666667V554.666667c0 23.466667 19.2 42.666667 42.666666 42.666666h384c23.466667 0 42.666667-19.2 42.666667-42.666666v-512c0-23.466667-19.2-42.666667-42.666667-42.666667z"  horiz-adv-x="1024" />

    
    <glyph glyph-name="filter_list_px_rounded" unicode="&#60817;" d="M469.333333 128h85.333334c23.466667 0 42.666667 19.2 42.666666 42.666667s-19.2 42.666667-42.666666 42.666666h-85.333334c-23.466667 0-42.666667-19.2-42.666666-42.666666s19.2-42.666667 42.666666-42.666667zM128 597.333333c0-23.466667 19.2-42.666667 42.666667-42.666666h682.666666c23.466667 0 42.666667 19.2 42.666667 42.666666s-19.2 42.666667-42.666667 42.666667H170.666667c-23.466667 0-42.666667-19.2-42.666667-42.666667z m170.666667-256h426.666666c23.466667 0 42.666667 19.2 42.666667 42.666667s-19.2 42.666667-42.666667 42.666667H298.666667c-23.466667 0-42.666667-19.2-42.666667-42.666667s19.2-42.666667 42.666667-42.666667z"  horiz-adv-x="1024" />

    
    <glyph glyph-name="how_to_reg_px_rounded" unicode="&#60818;" d="M499.2 44.373333l-36.693333 36.693334a127.872 127.872 0 0 0 0.853333 181.76l35.84 34.986666a398.506667 398.506667 0 0 1-42.666667 2.56c-113.92 0-341.333333-57.173333-341.333333-170.666666v-85.333334h384z m-42.666667 341.333334c94.293333 0 170.666667 76.373333 170.666667 170.666666s-76.373333 170.666667-170.666667 170.666667-170.666667-76.373333-170.666666-170.666667 76.373333-170.666667 170.666666-170.666666z m221.013334-331.946667c-16.64-16.64-43.946667-16.64-60.586667 0l-88.32 89.173333a42.24 42.24 0 0 0 0 59.306667l0.426667 0.426667a41.984 41.984 0 0 0 59.733333 0l58.453333-58.453334 189.013334 190.293334a42.496 42.496 0 0 0 60.16 0l0.426666-0.426667a42.24 42.24 0 0 0 0-59.306667l-219.306666-221.013333z"  horiz-adv-x="1024" />

    
    <glyph glyph-name="gesture_px_rounded" unicode="&#60819;" d="M155.733333 637.866667c20.053333-19.626667 51.626667-20.48 72.96-2.56 15.786667 13.653333 29.44 21.76 37.12 18.346666 21.333333-8.533333 0-43.946667-12.8-64.853333-10.666667-17.92-122.026667-165.973333-122.026666-269.226667 0-54.613333 20.48-99.84 57.173333-127.146666 32-23.893333 74.24-31.146667 112.64-19.626667 45.653333 13.226667 83.2 59.733333 130.56 118.186667 51.626667 63.573333 120.746667 146.773333 174.08 146.773333 69.546667 0 70.4-43.093333 75.093333-76.373333-161.28-27.306667-229.546667-156.586667-229.546666-229.12 0-72.533333 61.44-131.84 136.96-131.84 69.546667 0 183.04 56.746667 200.106666 260.266666h51.626667a53.333333 53.333333 0 0 1 0 106.666667h-52.053333c-6.4 70.4-46.506667 179.2-171.946667 179.2-96 0-178.346667-81.493333-210.773333-121.173333-24.746667-31.146667-87.893333-105.813333-97.706667-116.053334-10.666667-12.8-29.013333-35.84-47.36-35.84-19.2 0-30.72 35.413333-15.36 81.92 14.933333 46.506667 59.733333 122.026667 78.933333 150.186667 33.28 48.64 55.466667 81.92 55.466667 139.946667 0 92.586667-69.973333 122.026667-107.093333 122.026666-46.506667 0-87.04-26.88-115.2-52.053333-22.613333-20.48-22.613333-56.32-0.853334-77.653333z m433.493334-533.76c-13.226667 0-31.573333 11.093333-31.573334 30.72 0 25.6 31.146667 93.866667 122.453334 117.76-12.8-114.773333-61.013333-148.48-90.88-148.48z"  horiz-adv-x="1024" />

    
    <glyph glyph-name="forward_px_rounded" unicode="&#60820;" d="M520.533333 554.666667V622.506667c0 37.973333 46.08 57.173333 72.96 30.293333l238.506667-238.506667c16.64-16.64 16.64-43.52 0-60.16l-238.506667-238.506666c-26.88-26.88-72.96-8.106667-72.96 29.866666V213.333333h-298.666666c-23.466667 0-42.666667 19.2-42.666667 42.666667V512c0 23.466667 19.2 42.666667 42.666667 42.666667h298.666666z"  horiz-adv-x="1024" />

    
    <glyph glyph-name="markunread_px_rounded" unicode="&#60821;" d="M853.333333 725.333333H170.666667c-46.933333 0-85.333333-38.4-85.333334-85.333333v-512c0-46.933333 38.4-85.333333 85.333334-85.333333h682.666666c46.933333 0 85.333333 38.4 85.333334 85.333333V640c0 46.933333-38.4 85.333333-85.333334 85.333333z m-17.066666-181.333333l-279.04-174.506667c-27.733333-17.493333-62.72-17.493333-90.453334 0L187.733333 544a36.266667 36.266667 0 1 0 38.4 61.44L512 426.666667l285.866667 178.773333a36.266667 36.266667 0 1 0 38.4-61.44z"  horiz-adv-x="1024" />

    
    <glyph glyph-name="next_week_px_rounded" unicode="&#60822;" d="M853.333333 618.666667h-170.666666v85.333333c0 23.466667-9.386667 44.8-25.173334 60.16-15.36 15.786667-36.693333 25.173333-60.16 25.173333h-170.666666c-46.933333 0-85.333333-38.4-85.333334-85.333333v-85.333333H170.666667c-46.933333 0-85.333333-38.4-85.333334-85.333334v-469.333333c0-46.933333 38.4-85.333333 85.333334-85.333333h682.666666c46.933333 0 85.333333 38.4 85.333334 85.333333v469.333333c0 46.933333-38.4 85.333333-85.333334 85.333334z m-426.666666 85.333333h170.666666v-85.333333h-170.666666v85.333333z m21.333333-554.666667a29.866667 29.866667 0 0 0 0 42.666667L554.666667 298.666667l-106.666667 106.666666c-11.946667 11.946667-11.946667 30.72 0 42.666667s30.72 11.946667 42.666667 0l134.4-134.4c8.533333-8.533333 8.533333-21.76 0-30.293333L490.666667 149.333333a29.866667 29.866667 0 0 0-42.666667 0z"  horiz-adv-x="1024" />

    
    <glyph glyph-name="link_px_rounded" unicode="&#60823;" d="M725.333333 597.333333h-128c-23.466667 0-42.666667-19.2-42.666666-42.666666s19.2-42.666667 42.666666-42.666667h128c70.4 0 128-57.6 128-128s-57.6-128-128-128h-128c-23.466667 0-42.666667-19.2-42.666666-42.666667s19.2-42.666667 42.666666-42.666666h128c117.76 0 213.333333 95.573333 213.333334 213.333333s-95.573333 213.333333-213.333334 213.333333z m-384-213.333333c0-23.466667 19.2-42.666667 42.666667-42.666667h256c23.466667 0 42.666667 19.2 42.666667 42.666667s-19.2 42.666667-42.666667 42.666667H384c-23.466667 0-42.666667-19.2-42.666667-42.666667z m85.333334-128H298.666667c-70.4 0-128 57.6-128 128s57.6 128 128 128h128c23.466667 0 42.666667 19.2 42.666666 42.666667s-19.2 42.666667-42.666666 42.666666H298.666667c-117.76 0-213.333333-95.573333-213.333334-213.333333s95.573333-213.333333 213.333334-213.333333h128c23.466667 0 42.666667 19.2 42.666666 42.666666s-19.2 42.666667-42.666666 42.666667z"  horiz-adv-x="1024" />

    
    <glyph glyph-name="outlined_flag_px_rounded" unicode="&#60824;" d="M576 661.333333l-30.72 61.866667c-7.253333 14.506667-22.186667 23.466667-38.4 23.466667H234.666667c-23.466667 0-42.666667-19.2-42.666667-42.666667v-640c0-23.466667 19.2-42.666667 42.666667-42.666667s42.666667 19.2 42.666666 42.666667v256h213.333334l30.72-61.866667a42.666667 42.666667 0 0 1 37.973333-23.466666h229.973333c23.466667 0 42.666667 19.2 42.666667 42.666666v341.333334c0 23.466667-19.2 42.666667-42.666667 42.666666h-213.333333z m170.666667-341.333333h-170.666667l-42.666667 85.333333h-256v256h213.333334l42.666666-85.333333h213.333334v-256z"  horiz-adv-x="1024" />

    
    <glyph glyph-name="low_priority_px_rounded" unicode="&#60825;" d="M640 689.066667h256c23.466667 0 42.666667-19.2 42.666667-42.666667s-19.2-42.666667-42.666667-42.666667h-256c-23.466667 0-42.666667 19.2-42.666667 42.666667s19.2 42.666667 42.666667 42.666667z m0-234.666667h256c23.466667 0 42.666667-19.2 42.666667-42.666667s-19.2-42.666667-42.666667-42.666666h-256c-23.466667 0-42.666667 19.2-42.666667 42.666666s19.2 42.666667 42.666667 42.666667z m0-234.666667h256c23.466667 0 42.666667-19.2 42.666667-42.666666s-19.2-42.666667-42.666667-42.666667h-256c-23.466667 0-42.666667 19.2-42.666667 42.666667s19.2 42.666667 42.666667 42.666666zM420.266667 85.333333l76.373333 76.373334c8.533333 8.533333 8.533333 21.76 0 30.293333l-76.373333 76.373333a21.12 21.12 0 0 1-36.266667-14.933333v-153.173333c0-18.773333 23.04-28.16 36.266667-14.933334zM384 219.733333h-12.8c-100.266667 0-189.866667 72.96-199.68 172.8A192.384 192.384 0 0 0 362.666667 603.733333H469.333333c23.466667 0 42.666667 19.2 42.666667 42.666667s-19.2 42.666667-42.666667 42.666667H362.666667c-164.693333 0-296.96-145.066667-274.773334-314.026667 17.92-139.946667 143.786667-240.64 284.586667-240.64H384v85.333333z"  horiz-adv-x="1024" />

    
    <glyph glyph-name="mail_px_rounded" unicode="&#60826;" d="M853.333333 725.333333H170.666667c-46.933333 0-85.333333-38.4-85.333334-85.333333v-512c0-46.933333 38.4-85.333333 85.333334-85.333333h682.666666c46.933333 0 85.333333 38.4 85.333334 85.333333V640c0 46.933333-38.4 85.333333-85.333334 85.333333z m-17.066666-181.333333l-279.04-174.506667c-27.733333-17.493333-62.72-17.493333-90.453334 0L187.733333 544a36.266667 36.266667 0 1 0 38.4 61.44L512 426.666667l285.866667 178.773333a36.266667 36.266667 0 1 0 38.4-61.44z"  horiz-adv-x="1024" />

    
    <glyph glyph-name="remove_px_rounded" unicode="&#60827;" d="M768 341.333333H256c-23.466667 0-42.666667 19.2-42.666667 42.666667s19.2 42.666667 42.666667 42.666667h512c23.466667 0 42.666667-19.2 42.666667-42.666667s-19.2-42.666667-42.666667-42.666667z"  horiz-adv-x="1024" />

    
    <glyph glyph-name="redo_px_rounded" unicode="&#60828;" d="M786.346667 443.733333C707.413333 512.426667 605.013333 554.666667 491.946667 554.666667c-177.493333 0-330.24-103.253333-402.773334-253.013334-13.653333-28.586667 1.706667-62.72 32-72.96 25.173333-8.533333 52.48 3.413333 64 27.306667 55.466667 113.493333 171.946667 192 306.773334 192 83.2 0 159.146667-30.72 218.453333-80.213333l-81.493333-81.493334c-26.88-26.88-8.106667-72.96 29.866666-72.96h238.506667c23.466667 0 42.666667 19.2 42.666667 42.666667V494.506667c0 37.973333-46.08 57.173333-72.96 30.293333l-80.64-81.066667z"  horiz-adv-x="1024" />

    
    <glyph glyph-name="select_all_px_rounded" unicode="&#60829;" d="M128 682.666667h85.333333V768c-46.933333 0-85.333333-38.4-85.333333-85.333333z m0-341.333334h85.333333v85.333334H128v-85.333334z m170.666667-341.333333h85.333333v85.333333H298.666667v-85.333333zM128 512h85.333333V597.333333H128v-85.333333z m426.666667 256h-85.333334v-85.333333h85.333334V768z m256 0v-85.333333h85.333333c0 46.933333-38.4 85.333333-85.333333 85.333333zM213.333333 0v85.333333H128c0-46.933333 38.4-85.333333 85.333333-85.333333z m-85.333333 170.666667h85.333333v85.333333H128v-85.333333zM384 768H298.666667v-85.333333h85.333333V768z m85.333333-768h85.333334v85.333333h-85.333334v-85.333333z m341.333334 341.333333h85.333333v85.333334h-85.333333v-85.333334z m0-341.333333c46.933333 0 85.333333 38.4 85.333333 85.333333h-85.333333v-85.333333z m0 512h85.333333V597.333333h-85.333333v-85.333333z m0-341.333333h85.333333v85.333333h-85.333333v-85.333333z m-170.666667-170.666667h85.333333v85.333333h-85.333333v-85.333333z m0 682.666667h85.333333V768h-85.333333v-85.333333zM341.333333 170.666667h341.333334c23.466667 0 42.666667 19.2 42.666666 42.666666V554.666667c0 23.466667-19.2 42.666667-42.666666 42.666666H341.333333c-23.466667 0-42.666667-19.2-42.666666-42.666666v-341.333334c0-23.466667 19.2-42.666667 42.666666-42.666666z m42.666667 341.333333h256v-256H384V512z"  horiz-adv-x="1024" />

    
    <glyph glyph-name="paste_px_rounded" unicode="&#60830;" d="M810.666667 768h-178.346667C614.4 817.493333 567.466667 853.333333 512 853.333333s-102.4-35.84-120.32-85.333333H213.333333c-46.933333 0-85.333333-38.4-85.333333-85.333333v-682.666667c0-46.933333 38.4-85.333333 85.333333-85.333333h597.333334c46.933333 0 85.333333 38.4 85.333333 85.333333V682.666667c0 46.933333-38.4 85.333333-85.333333 85.333333z m-298.666667 0c23.466667 0 42.666667-19.2 42.666667-42.666667s-19.2-42.666667-42.666667-42.666666-42.666667 19.2-42.666667 42.666666 19.2 42.666667 42.666667 42.666667z m256-768H256c-23.466667 0-42.666667 19.2-42.666667 42.666667V640c0 23.466667 19.2 42.666667 42.666667 42.666667h42.666667v-42.666667c0-46.933333 38.4-85.333333 85.333333-85.333333h256c46.933333 0 85.333333 38.4 85.333333 85.333333V682.666667h42.666667c23.466667 0 42.666667-19.2 42.666667-42.666667v-597.333333c0-23.466667-19.2-42.666667-42.666667-42.666667z"  horiz-adv-x="1024" />

    
    <glyph glyph-name="report_off_px_rounded" unicode="&#60831;" d="M524.373333 609.706667c23.466667 0 42.666667-19.2 42.666667-42.666667v-56.746667l307.2-307.2 21.76 21.76a42.24 42.24 0 0 1 12.373333 30.293334V538.026667c0 11.52-4.693333 22.186667-12.373333 30.293333L696.32 768c-8.106667 7.68-19.2 12.373333-30.293333 12.373333H382.72c-11.093333 0-22.186667-4.693333-29.866667-12.373333l-21.76-21.76 157.44-157.44c7.253333 12.373333 20.48 20.906667 35.84 20.906667zM115.2 840.96L55.04 780.8l155.306667-155.306667-57.6-57.6c-7.68-7.68-12.373333-18.773333-12.373334-29.866666v-282.88c0-11.52 4.693333-22.186667 12.373334-30.293334l199.68-199.68c8.106667-8.106667 19.2-12.8 30.293333-12.8h282.88c11.52 0 22.186667 4.693333 30.293333 12.373334l57.6 57.6 155.306667-155.306667 60.16 60.16L115.2 840.96z m409.173333-670.72c-30.72 0-55.466667 24.746667-55.466666 55.466667s24.746667 55.466667 55.466666 55.466666 55.466667-24.746667 55.466667-55.466666-24.746667-55.466667-55.466667-55.466667z"  horiz-adv-x="1024" />

    
    <glyph glyph-name="send_px_rounded" unicode="&#60832;" d="M156.586667 25.6l744.533333 319.146667a42.666667 42.666667 0 0 1 0 78.506666L156.586667 742.4a42.368 42.368 0 0 1-59.306667-38.826667l-0.426667-196.693333c0-21.333333 15.786667-39.68 37.12-42.24L736.853333 384 133.973333 303.786667c-21.333333-2.986667-37.12-21.333333-37.12-42.666667l0.426667-196.693333c0-30.293333 31.146667-51.2 59.306667-38.826667z"  horiz-adv-x="1024" />

    
    <glyph glyph-name="inbox_px_rounded" unicode="&#60833;" d="M810.666667 768H212.906667c-47.36 0-84.48-37.973333-84.48-85.333333L128 85.333333c0-46.933333 37.546667-85.333333 84.906667-85.333333H810.666667c46.933333 0 85.333333 38.4 85.333333 85.333333V682.666667a85.333333 85.333333 0 0 1-85.333333 85.333333z m0-512h-133.546667c-20.053333 0-36.266667-14.506667-41.813333-34.133333-14.933333-54.186667-64.853333-93.866667-123.306667-93.866667s-108.373333 39.68-123.306667 93.866667c-5.546667 19.626667-21.76 34.133333-41.813333 34.133333H213.333333V640c0 23.466667 19.2 42.666667 42.666667 42.666667h512c23.466667 0 42.666667-19.2 42.666667-42.666667v-384z"  horiz-adv-x="1024" />

    
    <glyph glyph-name="unarchive_px_rounded" unicode="&#60834;" d="M876.8 673.28l-59.306667 71.68A64.426667 64.426667 0 0 1 768 768H256c-20.053333 0-37.546667-8.96-49.066667-23.466667L147.626667 673.28C135.253333 658.346667 128 639.573333 128 618.666667V85.333333a85.333333 85.333333 0 0 1 85.333333-85.333333h597.333334c46.933333 0 85.333333 38.4 85.333333 85.333333V618.666667c0 20.906667-7.253333 39.68-19.2 54.613333z m-349.866667-197.546667L746.666667 256H597.333333v-85.333333h-170.666666v85.333333H277.333333l219.733334 219.733333c8.106667 8.106667 21.76 8.106667 29.866666 0zM218.453333 682.666667l34.986667 42.666666h512l39.68-42.666666H218.453333z"  horiz-adv-x="1024" />

    
    <glyph glyph-name="save_alt_px_rounded" unicode="&#60835;" d="M810.666667 341.333333v-213.333333c0-23.466667-19.2-42.666667-42.666667-42.666667H256c-23.466667 0-42.666667 19.2-42.666667 42.666667v213.333333c0 23.466667-19.2 42.666667-42.666666 42.666667s-42.666667-19.2-42.666667-42.666667v-256c0-46.933333 38.4-85.333333 85.333333-85.333333h597.333334c46.933333 0 85.333333 38.4 85.333333 85.333333v256c0 23.466667-19.2 42.666667-42.666667 42.666667s-42.666667-19.2-42.666666-42.666667z m-256 14.08l80.213333 80.213334a42.496 42.496 0 1 0 60.16-60.16l-153.173333-153.173334a42.496 42.496 0 0 0-60.16 0L328.533333 375.466667c-8.106667 8.106667-12.373333 18.773333-12.373333 29.866666s4.693333 22.186667 12.373333 29.866667a42.496 42.496 0 0 0 60.16 0L469.333333 355.413333V725.333333c0 23.466667 19.2 42.666667 42.666667 42.666667s42.666667-19.2 42.666667-42.666667v-369.92z"  horiz-adv-x="1024" />

    
    <glyph glyph-name="remove_circle_outline_px_rounded" unicode="&#60836;" d="M298.666667 384c0-23.466667 19.2-42.666667 42.666666-42.666667h341.333334c23.466667 0 42.666667 19.2 42.666666 42.666667s-19.2 42.666667-42.666666 42.666667H341.333333c-23.466667 0-42.666667-19.2-42.666666-42.666667z m213.333333 426.666667C276.48 810.666667 85.333333 619.52 85.333333 384s191.146667-426.666667 426.666667-426.666667 426.666667 191.146667 426.666667 426.666667S747.52 810.666667 512 810.666667z m0-768c-188.16 0-341.333333 153.173333-341.333333 341.333333s153.173333 341.333333 341.333333 341.333333 341.333333-153.173333 341.333333-341.333333-153.173333-341.333333-341.333333-341.333333z"  horiz-adv-x="1024" />

    
    <glyph glyph-name="report_px_rounded" unicode="&#60837;" d="M653.653333 768H370.773333c-11.093333 0-22.186667-4.693333-29.866666-12.373333L140.8 555.52c-7.68-7.68-12.373333-18.773333-12.373333-29.866667v-282.88c0-11.52 4.693333-22.186667 12.373333-30.293333l199.68-199.68a42.666667 42.666667 0 0 1 30.293333-12.8h282.88c11.52 0 22.186667 4.693333 30.293334 12.373333l199.68 199.68a42.24 42.24 0 0 1 12.373333 30.293334V525.653333c0 11.52-4.693333 22.186667-12.373333 30.293334l-199.68 199.68c-7.68 7.68-18.773333 12.373333-30.293334 12.373333z m-141.226666-610.133333c-30.72 0-55.466667 24.746667-55.466667 55.466666 0 30.72 24.746667 55.466667 55.466667 55.466667s55.466667-24.746667 55.466666-55.466667c0-30.72-24.746667-55.466667-55.466666-55.466666z m0 183.466666c-23.466667 0-42.666667 19.2-42.666667 42.666667V554.666667c0 23.466667 19.2 42.666667 42.666667 42.666666s42.666667-19.2 42.666666-42.666666v-170.666667c0-23.466667-19.2-42.666667-42.666666-42.666667z"  horiz-adv-x="1024" />

    
    <glyph glyph-name="save_px_rounded" unicode="&#60838;" d="M750.506667 742.826667c-16.213333 16.213333-37.973333 25.173333-60.586667 25.173333H213.333333a85.333333 85.333333 0 0 1-85.333333-85.333333v-597.333334c0-46.933333 38.4-85.333333 85.333333-85.333333h597.333334c46.933333 0 85.333333 38.4 85.333333 85.333333V561.92c0 22.613333-8.96 44.373333-25.173333 60.16l-120.32 120.746667zM512 85.333333c-70.826667 0-128 57.173333-128 128s57.173333 128 128 128 128-57.173333 128-128-57.173333-128-128-128z m42.666667 426.666667H298.666667c-46.933333 0-85.333333 38.4-85.333334 85.333333s38.4 85.333333 85.333334 85.333334h256c46.933333 0 85.333333-38.4 85.333333-85.333334s-38.4-85.333333-85.333333-85.333333z"  horiz-adv-x="1024" />

    
    <glyph glyph-name="text_format_px_rounded" unicode="&#60839;" d="M213.333333 106.666667c0-23.466667 19.2-42.666667 42.666667-42.666667h512c23.466667 0 42.666667 19.2 42.666667 42.666667s-19.2 42.666667-42.666667 42.666666H256c-23.466667 0-42.666667-19.2-42.666667-42.666666z m192 221.866666h213.333334l28.16-68.266666c6.4-15.36 21.333333-25.6 37.973333-25.6 29.44 0 49.066667 30.293333 37.546667 57.173333l-165.546667 382.72c-7.68 17.92-25.173333 29.44-44.8 29.44s-37.12-11.52-44.8-29.44l-165.546667-382.72c-11.52-26.88 8.533333-57.173333 37.973334-57.173333 16.64 0 31.573333 10.24 37.973333 25.6l27.733333 68.266666zM512 619.52l79.786667-214.186667h-159.573334L512 619.52z"  horiz-adv-x="1024" />

    
    <glyph glyph-name="weekend_px_rounded" unicode="&#60840;" d="M896 469.333333c-46.933333 0-85.333333-38.4-85.333333-85.333333v-128H213.333333v128c0 46.933333-38.4 85.333333-85.333333 85.333333s-85.333333-38.4-85.333333-85.333333v-213.333333c0-46.933333 38.4-85.333333 85.333333-85.333334h768c46.933333 0 85.333333 38.4 85.333333 85.333334v213.333333c0 46.933333-38.4 85.333333-85.333333 85.333333z m-128 213.333334H256c-46.933333 0-85.333333-38.4-85.333333-85.333334v-91.733333c49.493333-17.493333 85.333333-64.426667 85.333333-120.32V298.666667h512v86.613333c0 55.466667 35.84 102.4 85.333333 120.32V597.333333c0 46.933333-38.4 85.333333-85.333333 85.333334z"  horiz-adv-x="1024" />

    
    <glyph glyph-name="move_to_inbox_px_rounded" unicode="&#60841;" d="M810.666667 768H212.906667C165.546667 768 128 729.6 128 682.666667v-597.333334c0-46.933333 37.546667-85.333333 84.906667-85.333333H810.666667c46.933333 0 85.333333 38.4 85.333333 85.333333V682.666667c0 46.933333-38.4 85.333333-85.333333 85.333333z m0-512h-133.546667c-20.053333 0-36.266667-14.506667-41.813333-34.133333-14.933333-54.186667-64.853333-93.866667-123.306667-93.866667s-108.373333 39.68-123.306667 93.866667c-5.546667 19.626667-21.76 34.133333-41.813333 34.133333H212.906667V640c0 23.466667 19.2 42.666667 42.666666 42.666667H768c23.466667 0 42.666667-19.2 42.666667-42.666667v-384z m-128 213.333333h-85.333334V597.333333h-170.666666v-128H341.333333l155.733334-155.733333c8.533333-8.533333 21.76-8.533333 30.293333 0L682.666667 469.333333z"  horiz-adv-x="1024" />

    
    <glyph glyph-name="waves_px_rounded" unicode="&#60842;" d="M725.333333 171.093333c-57.6 0-93.866667-17.92-125.866666-34.133333-27.733333-14.08-50.346667-25.6-87.466667-25.6-38.4 0-59.733333 10.666667-87.466667 25.6-32 16.213333-66.986667 34.133333-125.866666 34.133333s-93.866667-17.92-125.866667-34.133333c-18.346667-9.386667-34.56-17.493333-54.186667-22.186667-19.2-4.266667-33.28-19.626667-33.28-38.826666v-4.266667c0-25.6 23.893333-43.946667 48.64-38.826667 31.573333 6.4 55.466667 18.346667 77.226667 29.44 27.733333 14.08 49.92 25.6 87.466667 25.6s59.733333-10.666667 87.466666-25.6c32-16.213333 66.986667-34.133333 125.866667-34.133333s93.866667 17.92 125.866667 34.133333c27.733333 14.08 50.346667 25.6 87.466666 25.6 38.4 0 59.733333-10.666667 87.466667-25.6 22.186667-11.093333 46.08-23.466667 78.08-29.866666a40.106667 40.106667 0 0 1 47.786667 38.826666v3.84c0 19.626667-14.506667 34.986667-33.706667 39.253334-19.626667 4.266667-35.413333 12.373333-53.76 22.186666-32 16.64-68.266667 34.56-125.866667 34.56z m0 189.866667c-57.6 0-93.866667-18.346667-125.866666-34.133333-27.733333-13.653333-50.346667-25.6-87.466667-25.6-38.4 0-59.733333 10.666667-87.466667 25.6-32 16.213333-66.986667 34.133333-125.866666 34.133333s-93.866667-18.346667-125.866667-34.133333c-18.346667-8.96-34.56-17.493333-54.613333-22.186667-18.773333-4.266667-32.853333-19.626667-32.853334-38.826667v-4.266666a39.68 39.68 0 0 1 47.786667-38.826667c32 6.4 55.893333 18.773333 78.08 29.44 27.733333 14.933333 49.066667 25.6 87.466667 25.6s59.733333-10.666667 87.466666-25.6c32-16.213333 66.986667-34.133333 125.866667-34.133333s93.866667 18.346667 125.866667 34.133333c27.733333 14.933333 49.066667 25.6 87.466666 25.6s59.733333-10.666667 87.466667-25.6c22.186667-11.093333 46.08-23.466667 78.08-29.866667a40.106667 40.106667 0 0 1 47.786667 39.253334v3.84c0 19.626667-14.506667 34.986667-33.706667 39.253333-19.626667 4.266667-35.413333 12.373333-53.76 22.186667-32 16.213333-68.266667 34.133333-125.866667 34.133333z m125.866667 344.746667c-32 16.213333-67.413333 34.133333-125.866667 34.133333s-93.866667-17.92-125.866666-34.133333c-27.733333-13.653333-50.346667-25.6-87.466667-25.6-38.4 0-59.733333 10.666667-87.466667 25.6-32 15.786667-66.986667 34.133333-125.866666 34.133333s-93.866667-17.92-125.866667-34.133333c-18.346667-9.386667-34.56-17.493333-54.186667-22.186667-19.2-4.266667-33.28-19.626667-33.28-38.826667v-2.986666c0-25.6 23.04-44.373333 47.786667-39.253334 32 6.4 55.893333 18.773333 78.08 29.44 27.733333 14.08 49.92 25.6 87.466667 25.6s59.733333-10.666667 87.466666-25.6c32-16.213333 66.986667-34.133333 125.866667-34.133333s93.866667 18.346667 125.866667 34.133333c27.733333 13.653333 50.346667 25.6 87.466666 25.6 38.4 0 59.733333-10.666667 87.466667-25.6 22.186667-11.093333 46.08-23.466667 78.08-29.866666A40.106667 40.106667 0 0 1 938.666667 641.28v3.84c0 19.626667-14.506667 34.986667-33.706667 39.253333-19.626667 4.266667-35.413333 11.946667-53.76 21.333334zM725.333333 550.826667c-57.6 0-93.866667-18.346667-125.866666-34.133334-27.733333-14.933333-49.066667-25.6-87.466667-25.6s-59.733333 10.666667-87.466667 25.6c-32 16.213333-66.986667 34.133333-125.866666 34.133334s-93.866667-18.346667-125.866667-34.133334c-18.346667-9.813333-34.133333-17.92-53.76-22.186666-19.2-4.266667-33.706667-19.626667-33.706667-39.253334v-3.84a39.68 39.68 0 0 1 47.786667-38.826666c32 6.4 55.893333 18.773333 78.08 29.44 27.733333 13.653333 50.346667 25.6 87.466667 25.6s59.733333-10.666667 87.466666-25.6c32-16.213333 66.986667-34.133333 125.866667-34.133334s93.866667 18.346667 125.866667 34.133334c27.733333 13.653333 50.346667 25.6 87.466666 25.6 38.4 0 59.733333-10.666667 87.466667-25.6 22.186667-11.093333 46.08-23.466667 78.08-29.866667a40.106667 40.106667 0 0 1 47.786667 38.826667v3.84c0 19.626667-14.506667 34.986667-33.706667 39.253333-19.626667 4.266667-35.413333 12.373333-53.76 22.186667-32 16.64-68.266667 34.56-125.866667 34.56z"  horiz-adv-x="1024" />

    
    <glyph glyph-name="remove_circle_px_rounded" unicode="&#60843;" d="M512 810.666667C276.48 810.666667 85.333333 619.52 85.333333 384s191.146667-426.666667 426.666667-426.666667 426.666667 191.146667 426.666667 426.666667S747.52 810.666667 512 810.666667z m170.666667-469.333334H341.333333c-23.466667 0-42.666667 19.2-42.666666 42.666667s19.2 42.666667 42.666666 42.666667h341.333334c23.466667 0 42.666667-19.2 42.666666-42.666667s-19.2-42.666667-42.666666-42.666667z"  horiz-adv-x="1024" />

    
    <glyph glyph-name="how_to_vote_px_rounded" unicode="&#60844;" d="M483.84 255.146667c16.64-16.64 43.52-16.64 60.16 0l271.36 271.36a42.496 42.496 0 0 1 0 60.16L604.16 797.866667a41.6 41.6 0 0 1-59.733333 0.426666L272.64 526.506667a42.496 42.496 0 0 1 0-60.16l211.2-211.2z m90.453333 452.693333L725.333333 556.8l-211.2-211.2-151.04 151.04 211.2 211.2z m296.533334-469.333333l-90.453334 90.453333c-7.68 7.68-18.773333 12.373333-29.866666 12.373333h-11.52l-85.333334-85.333333h81.493334L810.666667 170.666667H213.333333l75.946667 85.333333h87.466667l-85.333334 85.333333h-17.92c-11.52 0-22.186667-4.693333-30.293333-12.373333l-90.453333-90.453333c-15.786667-16.213333-24.746667-37.973333-24.746667-60.586667V42.666667c0-46.933333 38.4-85.333333 85.333333-85.333334h597.333334a85.333333 85.333333 0 0 1 85.333333 85.333334v135.253333c0 22.613333-8.96 44.373333-25.173333 60.586667z"  horiz-adv-x="1024" />

    
    <glyph glyph-name="reply_px_rounded" unicode="&#60845;" d="M418.133333 563.2V631.04c0 37.973333-46.08 57.173333-72.96 30.293333L149.333333 465.493333a42.496 42.496 0 0 1 0-60.16l195.84-195.84c26.88-26.88 72.96-8.106667 72.96 29.866667V311.466667c213.333333 0 362.666667-68.266667 469.333334-217.6-42.666667 213.333333-170.666667 426.666667-469.333334 469.333333z"  horiz-adv-x="1024" />

    
    <glyph glyph-name="reply_all_px_rounded" unicode="&#60846;" d="M289.706667 624.64c0 40.106667-48.64 60.586667-77.226667 32L21.333333 465.493333a42.496 42.496 0 0 1 0-60.16l191.146667-191.146666c28.586667-29.013333 77.226667-8.533333 77.226667 31.573333 0 11.946667-4.693333 23.466667-13.226667 32L119.04 435.2l157.44 157.44c8.533333 8.533333 13.226667 20.053333 13.226667 32z m256-61.44V631.04c0 37.973333-46.08 57.173333-72.96 30.293333l-195.84-195.84a42.496 42.496 0 0 1 0-60.16l195.84-195.84c26.88-26.88 72.96-7.68 72.96 30.293334V311.466667c213.333333 0 362.666667-68.266667 469.333333-217.6-42.666667 213.333333-170.666667 426.666667-469.333333 469.333333z"  horiz-adv-x="1024" />

    
    <glyph glyph-name="link_off_px_rounded" unicode="&#60847;" d="M936.106667 413.866667c-15.786667 105.386667-111.786667 180.48-218.453334 180.48h-122.453333c-22.186667 0-40.533333-18.346667-40.533333-40.533334s18.346667-40.533333 40.533333-40.533333h123.733333c68.266667 0 129.706667-48.64 137.386667-116.48 7.253333-61.013333-27.306667-114.773333-78.933333-137.386667l59.733333-59.733333c69.546667 43.52 112.64 124.16 98.986667 214.186667zM175.786667 741.12a42.496 42.496 0 1 1-60.16-60.16l102.4-102.4c-82.773333-34.133333-139.52-118.186667-131.84-215.04 8.96-112.64 109.653333-195.84 222.293333-195.84h120.32c22.186667 0 40.533333 18.346667 40.533333 40.533333s-18.346667 40.533333-40.533333 40.533334H305.493333c-69.546667 0-132.266667 50.773333-138.666666 120.32A132.053333 132.053333 0 0 0 284.16 512l89.6-89.6c-18.346667-3.84-32.426667-19.626667-32.426667-39.253333v-4.266667c0-22.186667 18.346667-40.533333 40.533334-40.533333h75.946666L554.666667 241.493333v-73.813333h73.813333l140.8-140.8a42.496 42.496 0 1 1 60.16 60.16L175.786667 741.12zM682.666667 383.146667c0 22.186667-18.346667 40.533333-40.533334 40.533333h-28.16l63.573334-63.573333c2.986667 5.546667 5.12 11.946667 5.12 18.773333v4.266667z"  horiz-adv-x="1024" />

    
    <glyph glyph-name="undo_px_rounded" unicode="&#60848;" d="M532.053333 554.666667c-113.066667 0-215.466667-42.24-294.4-110.933334L157.013333 524.373333c-26.88 26.88-72.96 8.106667-72.96-29.866666V256c0-23.466667 19.2-42.666667 42.666667-42.666667h238.506667c37.973333 0 57.173333 46.08 30.293333 72.96l-81.493333 81.493334c59.306667 49.493333 134.826667 80.213333 218.453333 80.213333 134.826667 0 251.306667-78.506667 306.773333-192 11.52-23.893333 38.826667-35.84 64-27.306667 30.293333 9.813333 45.653333 44.373333 32 73.386667C861.866667 451.413333 709.12 554.666667 532.053333 554.666667z"  horiz-adv-x="1024" />

    
    <glyph glyph-name="report_gmailerrorred_px_rounded" unicode="&#60849;" d="M883.626667 555.52L683.946667 755.2c-8.106667 8.106667-19.2 12.8-30.293334 12.8H370.346667c-11.093333 0-22.186667-4.693333-29.866667-12.373333L140.373333 555.52c-7.68-7.68-12.373333-18.773333-12.373333-29.866667v-282.88c0-11.52 4.693333-22.186667 12.373333-30.293333l199.68-199.68c8.106667-8.106667 19.2-12.8 30.293334-12.8h282.88c11.52 0 22.186667 4.693333 30.293333 12.373333l199.68 199.68a42.24 42.24 0 0 1 12.373333 30.293334V525.653333c0.426667 11.093333-4.266667 22.186667-11.946666 29.866667zM810.666667 260.266667L635.733333 85.333333H388.266667L213.333333 260.266667V507.733333L388.266667 682.666667h247.466666L810.666667 507.733333v-247.466666z m-298.666667-4.266667c-23.466667 0-42.666667-19.2-42.666667-42.666667s19.2-42.666667 42.666667-42.666666 42.666667 19.2 42.666667 42.666666-18.773333 42.666667-42.666667 42.666667z m0 341.333333c-23.466667 0-42.666667-19.2-42.666667-42.666666v-213.333334c0-23.466667 19.2-42.666667 42.666667-42.666666s42.666667 19.2 42.666667 42.666666V554.666667c0 23.466667-19.2 42.666667-42.666667 42.666666z"  horiz-adv-x="1024" />

    
    <glyph glyph-name="sort_px_rounded" unicode="&#60850;" d="M170.666667 128h170.666666c23.466667 0 42.666667 19.2 42.666667 42.666667s-19.2 42.666667-42.666667 42.666666H170.666667c-23.466667 0-42.666667-19.2-42.666667-42.666666s19.2-42.666667 42.666667-42.666667zM128 597.333333c0-23.466667 19.2-42.666667 42.666667-42.666666h682.666666c23.466667 0 42.666667 19.2 42.666667 42.666666s-19.2 42.666667-42.666667 42.666667H170.666667c-23.466667 0-42.666667-19.2-42.666667-42.666667z m42.666667-256h426.666666c23.466667 0 42.666667 19.2 42.666667 42.666667s-19.2 42.666667-42.666667 42.666667H170.666667c-23.466667 0-42.666667-19.2-42.666667-42.666667s19.2-42.666667 42.666667-42.666667z"  horiz-adv-x="1024" />

    
    <glyph glyph-name="where_to_vote_px_rounded" unicode="&#60851;" d="M512 799.146667c-164.693333 0-298.666667-133.973333-298.666667-298.666667 0-177.92 188.586667-423.253333 265.813334-516.693333 17.066667-20.48 48.213333-20.48 65.28 0C622.08 77.653333 810.666667 322.56 810.666667 500.48c0 164.693333-133.973333 298.666667-298.666667 298.666667z m183.893333-262.826667l-218.88-218.88a42.496 42.496 0 0 0-60.16 0L328.533333 406.186667c-16.64 16.64-16.64 43.946667 0 60.586666 16.64 16.64 43.946667 16.64 60.586667 0l58.026667-58.026666L635.733333 597.333333c16.64 16.64 43.946667 16.64 60.586667 0 16.213333-17.493333 16.213333-43.946667-0.426667-61.013333z"  horiz-adv-x="1024" />

    
    <glyph glyph-name="access_time_px_rounded" unicode="&#60852;" d="M511.573333 810.666667C276.053333 810.666667 85.333333 619.52 85.333333 384s190.72-426.666667 426.24-426.666667C747.52-42.666667 938.666667 148.48 938.666667 384S747.52 810.666667 511.573333 810.666667zM512 42.666667c-188.586667 0-341.333333 152.746667-341.333333 341.333333s152.746667 341.333333 341.333333 341.333333 341.333333-152.746667 341.333333-341.333333-152.746667-341.333333-341.333333-341.333333z m-9.386667 554.666666h-2.56c-17.066667 0-30.72-13.653333-30.72-30.72v-201.386666c0-14.933333 7.68-29.013333 20.906667-36.693334l177.066667-106.24c14.506667-8.533333 33.28-4.266667 41.813333 10.24a30.293333 30.293333 0 0 1-10.666667 42.24l-165.12 98.133334V566.613333c0 17.066667-13.653333 30.72-30.72 30.72z"  horiz-adv-x="1024" />

    
    <glyph glyph-name="access_alarms_px_rounded" unicode="&#60853;" d="M677.12 250.026667l-143.786667 85.333333V528.64c0 17.066667-13.653333 30.72-30.72 30.72h-2.56c-17.066667 0-30.72-13.653333-30.72-30.72v-201.386667c0-14.933333 7.68-29.013333 20.906667-36.693333l155.733333-93.44c14.506667-8.533333 33.28-4.266667 41.813334 10.24 8.96 14.933333 4.266667 34.133333-10.666667 42.666667zM903.68 686.933333L772.266667 796.16c-17.92 14.933333-44.8 12.8-60.16-5.546667-14.933333-17.92-12.373333-44.8 5.546666-60.16l130.986667-109.226666c17.92-14.933333 44.8-12.8 60.16 5.546666a42.666667 42.666667 0 0 1-5.12 60.16zM174.933333 621.226667l130.986667 109.226666c18.346667 15.36 20.906667 42.24 5.546667 60.16a42.154667 42.154667 0 0 1-59.733334 5.546667L120.32 686.933333a42.666667 42.666667 0 0 1-5.12-60.16c14.933333-18.346667 41.813333-20.48 59.733333-5.546666zM512 730.026667a384 384 0 1 1 0.042667-768.042667A384 384 0 0 1 512 730.026667z m0-682.666667c-164.693333 0-298.666667 133.973333-298.666667 298.666667s133.973333 298.666667 298.666667 298.666666 298.666667-133.973333 298.666667-298.666666-133.973333-298.666667-298.666667-298.666667z"  horiz-adv-x="1024" />

    
    <glyph glyph-name="add_to_home_screen_px_rounded" unicode="&#60854;" d="M780.8 852.906667L354.133333 853.333333c-46.933333 0-85.333333-38.4-85.333333-85.333333v-128c0-23.466667 19.2-42.666667 42.666667-42.666667s42.666667 19.2 42.666666 42.666667V682.666667h426.666667v-597.333334h-426.666667v42.666667c0 23.466667-19.2 42.666667-42.666666 42.666667s-42.666667-19.2-42.666667-42.666667v-128c0-46.933333 38.4-85.333333 85.333333-85.333333h426.666667c46.933333 0 85.333333 38.4 85.333333 85.333333V768c0 46.933333-38.4 84.906667-85.333333 84.906667zM482.133333 256c23.466667 0 42.666667 19.2 42.666667 42.666667V512c0 23.466667-19.2 42.666667-42.666667 42.666667h-213.333333c-23.466667 0-42.666667-19.2-42.666667-42.666667s19.2-42.666667 42.666667-42.666667h110.506667L170.666667 260.693333a42.496 42.496 0 1 1 60.16-60.16l208.64 208.64V298.666667c0-23.466667 19.2-42.666667 42.666666-42.666667z"  horiz-adv-x="1024" />

    
    <glyph glyph-name="access_alarm_px_rounded" unicode="&#60855;" d="M677.12 250.026667l-143.786667 85.333333V528.64c0 17.066667-13.653333 30.72-30.72 30.72h-2.56c-17.066667 0-30.72-13.653333-30.72-30.72v-201.386667c0-14.933333 7.68-29.013333 20.906667-36.693333l155.733333-93.44c14.506667-8.533333 33.28-4.266667 41.813334 10.24 8.96 14.933333 4.266667 34.133333-10.666667 42.666667zM903.68 686.933333L772.266667 796.16c-17.92 14.933333-44.8 12.8-60.16-5.546667-14.933333-17.92-12.373333-44.8 5.546666-60.16l130.986667-109.226666c17.92-14.933333 44.8-12.8 60.16 5.546666a42.666667 42.666667 0 0 1-5.12 60.16zM174.933333 621.226667l130.986667 109.226666c18.346667 15.36 20.906667 42.24 5.546667 60.16a42.154667 42.154667 0 0 1-59.733334 5.546667L120.32 686.933333a42.666667 42.666667 0 0 1-5.12-60.16c14.933333-18.346667 41.813333-20.48 59.733333-5.546666zM512 730.026667a384 384 0 1 1 0.042667-768.042667A384 384 0 0 1 512 730.026667z m0-682.666667c-164.693333 0-298.666667 133.973333-298.666667 298.666667s133.973333 298.666667 298.666667 298.666666 298.666667-133.973333 298.666667-298.666666-133.973333-298.666667-298.666667-298.666667z"  horiz-adv-x="1024" />

    
    <glyph glyph-name="airplanemode_active_px_rounded" unicode="&#60856;" d="M917.333333 270.506667c0 15.36-8.106667 29.44-20.906666 37.973333L576 508.586667v234.666666c0 35.413333-28.586667 64-64 64s-64-28.586667-64-64v-234.666666l-320.426667-200.106667a44.8 44.8 0 0 1 37.12-80.64l283.306667 88.746667v-234.666667l-76.8-57.6a20.48 20.48 0 0 1-8.533333-17.066667v-25.173333c0-14.08 13.653333-24.32 27.306666-20.48l122.026667 34.986667 122.026667-34.986667c13.653333-3.84 27.306667 6.4 27.306666 20.48v25.173333a20.48 20.48 0 0 1-8.533333 17.066667l-76.8 57.6v234.666667l283.306667-88.746667c29.013333-8.96 58.026667 12.8 58.026666 42.666667z"  horiz-adv-x="1024" />

    
    <glyph glyph-name="add_alarm_px_rounded" unicode="&#60857;" d="M640 388.693333h-85.333333v85.333334c0 23.466667-19.2 42.666667-42.666667 42.666666s-42.666667-19.2-42.666667-42.666666v-85.333334H384c-23.466667 0-42.666667-19.2-42.666667-42.666666s19.2-42.666667 42.666667-42.666667h85.333333v-85.333333c0-23.466667 19.2-42.666667 42.666667-42.666667s42.666667 19.2 42.666667 42.666667v85.333333h85.333333c23.466667 0 42.666667 19.2 42.666667 42.666667s-19.2 42.666667-42.666667 42.666666z m263.68 298.24L772.266667 796.16c-17.92 14.933333-44.8 12.8-60.16-5.546667-14.933333-17.92-12.373333-44.8 5.546666-60.16l130.986667-109.226666c17.92-14.933333 44.8-12.8 60.16 5.546666a42.666667 42.666667 0 0 1-5.12 60.16zM174.933333 621.226667l130.986667 109.226666c18.346667 15.36 20.906667 42.24 5.546667 60.16a42.154667 42.154667 0 0 1-59.733334 5.546667L120.32 686.933333a42.666667 42.666667 0 0 1-5.12-60.16c14.933333-18.346667 41.813333-20.48 59.733333-5.546666zM512 730.026667a384 384 0 1 1 0.042667-768.042667A384 384 0 0 1 512 730.026667z m0-682.666667c-164.693333 0-298.666667 133.973333-298.666667 298.666667s133.973333 298.666667 298.666667 298.666666 298.666667-133.973333 298.666667-298.666666-133.973333-298.666667-298.666667-298.666667z"  horiz-adv-x="1024" />

    
    <glyph glyph-name="battery_charging_full_px_rounded" unicode="&#60858;" d="M668.586667 725.333333H597.333333V768c0 23.466667-19.2 42.666667-42.666666 42.666667h-85.333334c-23.466667 0-42.666667-19.2-42.666666-42.666667v-42.666667H355.413333C324.266667 725.333333 298.666667 699.733333 298.666667 668.586667v-654.08C298.666667-17.066667 324.266667-42.666667 355.84-42.666667h312.32c31.573333 0 57.173333 25.6 57.173333 56.746667V668.586667C725.333333 699.733333 699.733333 725.333333 668.586667 725.333333z m-45.226667-394.24l-113.92-213.333333c-10.24-19.2-40.106667-11.946667-40.106667 10.24v149.333333H419.413333a21.333333 21.333333 0 0 0-18.773333 31.573334l113.92 213.333333c10.24 19.2 40.106667 11.946667 40.106667-10.24v-149.333333h49.92c15.786667 0 26.453333-17.066667 18.773333-31.573334z"  horiz-adv-x="1024" />

    
    <glyph glyph-name="battery_full_px_rounded" unicode="&#60859;" d="M668.586667 725.333333H597.333333V768c0 23.466667-19.2 42.666667-42.666666 42.666667h-85.333334c-23.466667 0-42.666667-19.2-42.666666-42.666667v-42.666667H355.413333C324.266667 725.333333 298.666667 699.733333 298.666667 668.586667v-654.08C298.666667-17.066667 324.266667-42.666667 355.84-42.666667h312.32c31.573333 0 57.173333 25.6 57.173333 56.746667V668.586667C725.333333 699.733333 699.733333 725.333333 668.586667 725.333333z"  horiz-adv-x="1024" />

    
    <glyph glyph-name="battery_unknown_px_rounded" unicode="&#60860;" d="M668.586667 725.333333H597.333333V768c0 23.466667-19.2 42.666667-42.666666 42.666667h-85.333334c-23.466667 0-42.666667-19.2-42.666666-42.666667v-42.666667H355.413333C324.266667 725.333333 298.666667 699.733333 298.666667 668.586667v-654.08C298.666667-17.066667 324.266667-42.666667 355.84-42.666667h312.32c31.573333 0 57.173333 25.6 57.173333 56.746667V668.586667C725.333333 699.733333 699.733333 725.333333 668.586667 725.333333zM554.666667 128h-85.333334v85.333333h85.333334v-85.333333z m55.466666 226.56s-16.213333-17.92-28.586666-30.293333c-5.973333-5.973333-11.52-13.226667-16.64-20.053334l-3.84-6.4c-3.413333-5.12-5.973333-10.666667-8.106667-15.786666-3.84-9.386667-6.826667-18.346667-6.826667-26.026667h-68.266666c0 17.92 5.12 34.133333 12.373333 48.213333 2.56 4.693333 5.546667 8.96 8.533333 13.226667 1.28 2.133333 2.56 4.693333 4.266667 6.826667 4.693333 5.973333 9.813333 11.946667 14.506667 17.066666l39.68 40.106667A63.914667 63.914667 0 0 1 512 490.666667c-27.733333 0-51.626667-17.493333-60.16-42.24a32 32 0 0 0-30.293333-21.76c-22.186667 0-37.546667 22.186667-30.293334 43.093333A128.213333 128.213333 0 0 0 512 554.666667c70.826667 0 128-57.173333 128-128 0-28.16-11.52-53.76-29.866667-72.106667z"  horiz-adv-x="1024" />

    
    </font>
</defs>
</svg>
